<?xml version="1.0" standalone="no"?>
<!DOCTYPE svg PUBLIC "-//W3C//DTD SVG 20010904//EN"
 "http://www.w3.org/TR/2001/REC-SVG-20010904/DTD/svg10.dtd">
<svg version="1.0" xmlns="http://www.w3.org/2000/svg"
 width="960.000000pt" height="637.000000pt" viewBox="0 0 960.000000 637.000000"
 preserveAspectRatio="xMidYMid meet">

<g transform="translate(0.000000,637.000000) scale(0.100000,-0.100000)"
fill="#000000" stroke="none">
<path d="M859 5830 c-58 -90 -88 -160 -139 -330 -13 -41 -27 -85 -31 -98 -15
-38 -38 -165 -37 -197 0 -16 -9 -61 -21 -98 -13 -44 -18 -75 -12 -84 9 -17 4
-51 -11 -69 -8 -11 -23 -11 -134 1 -40 4 -53 2 -58 -10 -4 -11 -21 -15 -63
-15 -34 -1 -66 -6 -77 -15 -11 -9 -30 -12 -48 -8 -21 4 -35 0 -52 -16 -12 -12
-26 -18 -30 -14 -13 13 -34 -25 -28 -53 3 -18 10 -25 26 -23 11 1 34 -4 49
-11 22 -11 35 -11 58 -3 30 12 54 -2 30 -16 -9 -6 -7 -14 7 -31 15 -19 17 -31
11 -59 -4 -20 -10 -86 -12 -147 -2 -60 -6 -115 -10 -120 -3 -6 -8 -77 -11
-160 -4 -82 -8 -176 -11 -209 -3 -33 -7 -112 -10 -175 -3 -63 -8 -129 -11
-147 -4 -18 -7 -49 -9 -70 -1 -21 -6 -76 -10 -123 l-8 -86 32 -34 c17 -19 31
-38 31 -41 0 -4 3 -14 6 -23 4 -10 1 -16 -9 -16 -10 0 -17 11 -19 28 -2 15 -4
-3 -4 -39 0 -56 2 -66 15 -62 10 3 12 2 5 -4 -6 -4 -14 -15 -17 -23 -4 -12 -6
-11 -6 3 -1 15 -14 17 -121 17 l-120 0 0 -200 c0 -165 2 -200 14 -200 9 0 15
-15 18 -42 3 -24 8 -51 12 -60 6 -14 3 -18 -12 -18 -11 0 -23 6 -25 13 -3 6
-6 -20 -6 -59 l-1 -70 48 -17 c27 -10 56 -15 65 -11 10 3 17 1 17 -5 0 -10 79
-51 99 -51 6 0 11 7 11 15 0 11 10 15 33 15 17 0 46 2 62 5 32 7 82 -21 58
-31 -7 -3 -13 -11 -13 -19 0 -7 -10 -20 -22 -29 -16 -12 -17 -15 -6 -12 23 7
31 -9 18 -34 -7 -12 -16 -18 -23 -13 -7 4 -24 6 -40 4 -23 -2 -27 1 -25 20 2
16 -6 27 -31 41 -41 23 -81 17 -81 -12 0 -10 -5 -22 -10 -25 -6 -4 -10 5 -10
19 0 14 -5 26 -11 26 -8 0 -10 -14 -6 -40 6 -46 -9 -65 -18 -23 -15 66 -20 72
-62 62 -21 -5 -41 -9 -45 -9 -5 0 -8 -18 -8 -40 0 -36 3 -40 24 -40 14 0 37
-5 51 -10 21 -8 26 -15 22 -31 -3 -12 -1 -29 6 -39 15 -25 -5 -48 -46 -52 -24
-2 -32 -8 -32 -23 0 -17 6 -20 41 -18 30 1 43 -3 52 -18 16 -24 8 -39 -21 -40
l-22 0 23 -9 c24 -10 26 -17 13 -39 -8 -12 -12 -12 -25 -2 -13 11 -16 11 -16
-2 0 -16 26 -32 48 -28 6 1 12 -3 12 -9 0 -5 6 -10 13 -10 8 0 20 -12 27 -28
8 -15 15 -29 17 -31 1 -2 18 13 37 34 29 30 39 35 58 29 13 -5 57 -8 100 -9
42 0 80 -3 84 -7 4 -4 17 4 30 17 39 43 61 31 54 -30 -2 -18 0 -17 19 5 13 16
20 20 21 11 0 -8 6 -22 13 -30 8 -9 20 -32 27 -51 7 -19 21 -44 30 -55 9 -11
25 -37 36 -58 10 -21 38 -63 61 -95 l43 -56 -23 -24 c-17 -19 -29 -23 -55 -18
-29 4 -32 3 -27 -15 5 -14 2 -19 -10 -19 -13 0 -16 -6 -11 -26 7 -25 5 -26
-19 -20 -20 5 -26 3 -23 -6 3 -8 16 -12 31 -10 15 2 27 -1 27 -7 0 -6 7 -11
15 -11 8 0 17 -10 19 -22 12 -58 14 -98 5 -98 -5 0 -9 -4 -9 -10 0 -18 29 -11
40 10 7 14 7 26 1 39 -10 18 -6 31 9 31 4 0 10 -18 14 -39 3 -22 8 -46 12 -54
4 -11 -1 -13 -18 -10 -36 6 -52 -10 -42 -43 11 -41 11 -49 -3 -50 -27 -3 -27
-5 -9 -19 30 -23 14 -26 -43 -9 -70 20 -83 14 -38 -20 39 -30 50 -69 22 -80
-8 -3 -15 -9 -15 -14 0 -17 72 -92 89 -92 12 0 16 -8 15 -27 0 -16 -2 -43 -2
-60 -2 -41 -47 -68 -100 -59 -19 3 -43 1 -53 -5 -23 -12 -79 14 -79 36 0 8 -9
20 -20 27 -26 16 -25 36 1 64 l21 23 -21 44 c-25 51 -20 102 11 118 15 8 17
13 7 25 -6 8 -8 14 -5 14 4 0 2 9 -4 20 -12 23 -42 20 -98 -12 -18 -10 -41
-18 -52 -18 -13 0 -20 -7 -20 -18 0 -29 -35 -54 -83 -59 -35 -4 -47 -2 -58 13
-16 22 -56 55 -46 38 11 -19 -71 -11 -90 10 -17 18 -17 18 5 7 25 -13 23 -16
41 61 16 67 16 67 -42 70 l-52 3 35 12 c33 11 34 11 8 12 -37 1 -36 16 2 30
17 5 30 15 30 22 0 18 -32 38 -62 39 l-28 0 0 -246 0 -245 23 6 c12 4 35 16
50 27 33 23 51 14 45 -23 -2 -16 -9 -24 -21 -23 -28 3 -21 -35 10 -49 48 -21
73 -49 73 -81 0 -19 10 -40 26 -57 26 -27 26 -27 7 -46 -11 -11 -28 -23 -38
-26 -10 -4 -15 -10 -12 -14 10 -9 -25 -32 -50 -33 -12 0 -26 -7 -31 -17 -5 -9
-25 -21 -43 -27 -30 -10 -34 -16 -37 -48 -3 -33 2 -43 37 -76 23 -22 41 -46
41 -55 0 -11 12 -18 38 -22 20 -4 42 -8 49 -10 16 -5 8 -72 -12 -100 -8 -11
-22 -30 -31 -42 -13 -18 -14 -28 -5 -54 14 -42 6 -52 -39 -44 -63 11 -84 -30
-78 -150 l3 -60 2186 -3 2186 -2 6 132 c4 73 9 145 13 161 6 24 3 29 -25 38
-20 7 -33 20 -37 35 -4 15 -13 24 -26 24 -17 0 -19 4 -13 33 4 17 10 37 14 42
3 6 13 55 23 110 12 71 14 105 6 119 -6 10 -8 38 -4 62 3 24 2 45 -3 48 -5 3
-7 32 -5 63 6 119 -30 589 -42 538 -1 -5 -8 -44 -15 -85 -13 -70 -14 -73 -21
-40 -5 23 -5 16 -2 -22 2 -33 0 -58 -5 -58 -16 0 -18 -34 -3 -57 9 -14 11 -33
7 -53 -6 -25 -3 -35 13 -46 14 -9 21 -29 24 -66 3 -31 12 -56 20 -62 12 -7 8
-13 -23 -30 -20 -12 -73 -54 -116 -93 -114 -105 -172 -146 -297 -208 -133 -66
-251 -95 -398 -95 l-97 0 -6 38 c-4 20 -15 73 -25 117 -10 44 -28 132 -40 195
-12 63 -27 128 -35 144 -12 27 -13 26 -18 -35 -9 -90 -23 -174 -42 -244 -9
-33 -23 -96 -32 -140 -8 -44 -16 -81 -18 -83 -6 -6 -236 49 -291 69 -50 19
-123 68 -82 55 10 -3 17 -2 17 2 -4 26 3 42 19 40 9 -1 28 0 42 1 l25 2 -22 9
c-25 10 -29 36 -10 61 8 11 12 47 10 102 l-2 86 53 40 c57 44 168 103 248 131
l52 18 18 -36 18 -37 -7 50 c-3 28 -6 68 -6 90 0 56 21 182 33 205 5 10 10 45
10 77 0 32 5 85 10 118 9 52 31 356 26 362 -1 1 -38 -31 -81 -72 -43 -41 -84
-75 -91 -75 -7 0 -14 -4 -16 -9 -1 -6 -29 -30 -61 -55 -55 -43 -110 -102 -120
-129 -3 -9 -8 -9 -16 -1 -9 9 -7 22 10 57 13 26 20 49 17 52 -3 3 -30 -6 -61
-21 l-57 -25 7 -77 c3 -42 12 -89 21 -103 14 -24 13 -28 -6 -47 -20 -20 -31
-71 -31 -142 0 -45 -6 -128 -16 -207 -8 -68 -25 -82 -43 -35 -51 135 -91 257
-102 307 -7 33 -22 94 -35 135 -24 83 -45 183 -45 221 0 13 -7 35 -16 47 -10
15 -13 32 -9 53 4 17 2 35 -4 43 -12 14 -9 116 4 149 12 29 -1 30 -20 1 -12
-18 -17 -47 -17 -95 l-1 -70 -22 33 c-30 44 -37 95 -40 268 -2 107 -7 157 -19
190 -13 35 -15 62 -10 123 4 42 11 80 16 83 5 3 16 -13 25 -35 17 -44 48 -59
38 -18 -4 15 -1 28 9 36 14 11 11 18 -19 58 -40 52 -45 78 -15 68 18 -6 19 -3
13 59 -4 49 -3 66 6 66 8 0 7 5 -3 16 -20 20 -20 38 -1 54 13 11 13 15 3 21
-10 6 -10 11 -1 20 9 9 8 17 -3 35 -14 20 -14 23 2 32 11 6 15 16 11 26 -5 11
-3 15 4 10 12 -7 12 -6 -10 39 -15 29 -7 51 10 27 8 -12 10 -10 6 8 -10 46 78
108 345 239 132 64 158 81 163 102 7 32 32 67 42 58 4 -4 1 -13 -5 -19 -23
-23 -14 -83 16 -113 40 -41 139 -85 187 -84 22 1 33 3 23 6 -16 4 -34 50 -23
61 10 10 60 -26 59 -43 -1 -8 3 -15 8 -15 6 0 5 -6 -2 -15 -30 -36 40 -9 137
52 67 43 92 73 60 73 -7 0 -31 18 -52 40 -21 22 -48 40 -60 41 -32 1 -76 32
-95 67 -26 47 -23 210 3 226 13 8 20 8 25 0 13 -20 71 -44 111 -46 24 -1 42
-7 45 -15 8 -20 117 -66 129 -54 15 15 -1 31 -31 31 -15 0 -33 4 -41 9 -18 11
-6 45 13 38 17 -7 25 11 20 44 -3 13 0 30 5 38 8 12 15 9 39 -17 27 -28 32
-30 63 -22 55 16 58 30 6 30 -26 0 -47 5 -47 10 0 6 9 10 20 10 22 0 56 62 45
81 -9 14 12 29 43 29 14 0 26 -8 31 -22 7 -19 8 -19 14 -4 8 21 1 36 -18 36
-8 0 -21 14 -30 30 -9 17 -24 30 -33 30 -19 0 -63 -30 -100 -67 -25 -26 -72
-31 -72 -8 0 19 -31 35 -68 35 -16 0 -47 7 -68 16 -97 39 -94 36 -94 76 0 20
5 40 10 43 7 4 7 12 0 25 -14 26 -13 30 9 30 10 0 30 9 44 20 14 11 29 20 34
19 4 -1 15 1 23 4 69 30 136 43 173 34 21 -5 41 -16 44 -23 3 -8 9 -14 15 -14
5 0 0 13 -11 29 -15 21 -21 45 -21 83 0 68 -29 117 -92 157 -65 41 -116 54
-170 41 -24 -5 -64 -10 -90 -10 -51 0 -199 -32 -251 -54 -78 -32 -153 -131
-175 -231 -21 -98 -23 -126 -12 -208 17 -118 17 -121 40 -147 11 -13 20 -29
20 -37 0 -8 9 -30 19 -51 36 -69 121 -126 121 -81 0 10 5 19 10 19 6 0 10 -4
10 -10 0 -5 7 -10 15 -10 8 0 15 -7 15 -15 0 -8 -7 -15 -15 -15 -8 0 -15 -5
-15 -11 0 -7 -17 -9 -52 -5 -109 13 -202 13 -216 -1 -19 -19 -46 -16 -67 7
-17 19 -105 50 -140 50 -14 0 -15 -3 -5 -15 7 -8 23 -15 35 -15 13 0 26 -8 30
-17 5 -15 4 -16 -6 -5 -18 17 -32 15 -25 -3 4 -13 2 -13 -14 -5 -10 5 -29 10
-42 10 -13 0 -32 7 -42 15 -11 8 -30 15 -42 15 -12 0 -24 6 -27 13 -3 9 -37
12 -130 11 -70 -1 -127 3 -127 7 0 5 -21 14 -47 21 -35 8 -42 13 -28 18 10 4
14 9 9 12 -12 8 -93 3 -174 -12 -36 -6 -87 -9 -115 -6 -27 3 -42 3 -32 0 9 -3
17 -9 17 -14 0 -12 -28 -20 -46 -13 -13 5 -14 -2 -8 -46 5 -41 4 -52 -9 -57
-9 -3 -19 -18 -22 -33 -5 -24 -13 -30 -56 -39 -68 -16 -72 -16 -135 14 -29 14
-62 23 -72 20 -25 -8 -79 20 -88 46 -4 13 0 26 10 36 10 11 16 12 16 4 0 -15
26 -16 35 -1 4 5 -9 31 -29 56 -20 26 -36 52 -36 60 0 7 -11 19 -25 25 -17 8
-25 19 -25 37 0 22 7 29 49 44 27 9 58 17 69 17 28 0 62 37 62 67 0 31 -11 29
-53 -12 -28 -28 -44 -35 -74 -35 l-38 0 30 26 c35 30 86 54 114 54 11 0 35
-14 53 -30 18 -17 36 -30 39 -30 15 0 -25 63 -42 67 -10 3 -17 9 -14 13 11 18
-15 19 -61 4 -27 -9 -70 -19 -96 -23 -42 -7 -48 -5 -48 11 0 9 -11 25 -25 34
-50 33 -30 61 95 135 88 52 166 127 175 169 7 31 4 38 -52 140 -75 136 -136
231 -156 244 -34 22 -141 39 -212 34 -53 -5 -82 -15 -169 -62 -58 -30 -106
-52 -107 -48 -1 10 -4 96 -7 228 l-2 111 -47 10 -48 10 48 2 47 1 0 48 c0 26
-3 64 -7 85 -5 32 -11 39 -34 44 -33 6 -32 4 -19 39 10 26 11 26 24 8 8 -10
18 -15 22 -11 11 11 6 147 -6 162 -6 7 -6 15 0 21 7 7 9 101 8 250 -3 224 -4
237 -19 214z m-3 -728 c-24 -5 -49 6 -41 18 3 6 16 5 32 -3 21 -9 23 -13 9
-15z m-29 -98 c-3 -3 -12 -4 -19 -1 -8 3 -5 6 6 6 11 1 17 -2 13 -5z m-146
-119 c70 -37 100 -95 78 -152 l-12 -28 -8 29 c-5 18 -4 35 2 42 7 8 3 13 -12
17 -18 5 -20 2 -15 -19 4 -14 2 -24 -4 -24 -5 0 -10 4 -10 9 0 5 -14 16 -31
25 -27 13 -30 13 -25 1 8 -22 -3 -18 -25 8 -16 19 -18 20 -19 4 0 -30 35 -60
64 -53 27 7 45 -9 28 -26 -6 -6 -27 -12 -47 -14 -20 -2 -45 -6 -56 -9 -22 -7
-35 15 -25 41 6 16 8 16 24 0 25 -22 33 -20 23 7 -8 22 -40 31 -52 14 -3 -4
-5 11 -5 35 1 33 -2 42 -14 40 -12 -2 -12 0 2 11 12 10 14 17 6 32 -9 15 -8
17 5 12 9 -3 19 -2 22 3 9 15 73 12 106 -5z m-187 -54 c-6 -6 -24 19 -24 34 1
6 7 1 15 -9 8 -11 12 -22 9 -25z m36 -55 c0 -3 -4 -8 -10 -11 -5 -3 -10 -1
-10 4 0 6 5 11 10 11 6 0 10 -2 10 -4z m-170 -71 c0 -8 -4 -15 -10 -15 -5 0
-10 7 -10 15 0 8 5 15 10 15 6 0 10 -7 10 -15z m350 -15 c0 -5 -5 -10 -11 -10
-5 0 -7 5 -4 10 3 6 8 10 11 10 2 0 4 -4 4 -10z m-10 -36 c0 -2 -9 -4 -20 -4
-11 0 -20 4 -20 9 0 5 9 7 20 4 11 -3 20 -7 20 -9z m-51 -443 c0 -63 -3 -89
-9 -76 -6 15 -9 8 -9 -28 -1 -33 2 -46 10 -41 9 5 10 -14 4 -72 -7 -75 -20
-103 -38 -85 -11 11 1 57 18 71 14 11 9 50 -6 50 -5 0 -9 26 -9 57 0 37 -5 62
-16 74 -18 20 -20 40 -10 92 10 53 24 46 20 -10 -3 -47 -3 -47 7 -13 5 19 10
53 10 75 0 37 1 39 14 21 11 -15 15 -46 14 -115z m-196 -22 c6 -9 7 -24 3 -34
-6 -18 -8 -17 -28 3 -12 12 -18 25 -14 29 5 5 11 2 13 -4 5 -15 23 -18 23 -5
0 5 -10 14 -22 20 -19 10 -20 11 -4 9 10 -1 23 -9 29 -18z m79 -161 c-15 -15
-24 -6 -16 16 5 12 10 14 17 7 8 -8 8 -14 -1 -23z m48 -39 c0 -18 -18 -9 -23
12 -4 16 -3 18 9 8 8 -6 14 -15 14 -20z m-260 -99 c17 0 16 -3 -7 -26 -14 -14
-28 -23 -31 -19 -3 3 -1 10 6 17 6 6 10 23 8 37 -2 14 -1 18 1 9 2 -10 13 -18
23 -18z m70 15 c-7 -8 -20 -15 -29 -15 -11 1 -8 5 9 15 32 18 35 18 20 0z m45
5 c-3 -5 -11 -10 -16 -10 -6 0 -7 5 -4 10 3 6 11 10 16 10 6 0 7 -4 4 -10z
m372 -22 c-3 -7 -5 -2 -5 12 0 14 2 19 5 13 2 -7 2 -19 0 -25z m-377 -28 c-8
-5 -19 -10 -25 -10 -5 0 -3 5 5 10 8 5 20 10 25 10 6 0 3 -5 -5 -10z m3046 -5
c-22 -17 -36 -19 -36 -7 0 14 12 22 34 22 21 -1 21 -1 2 -15z m-2851 -47 c9
-68 3 -120 -13 -126 -9 -3 -12 9 -11 40 1 23 -1 64 -6 91 -6 39 -5 47 8 47 11
0 17 -14 22 -52z m715 31 c0 -24 -23 -21 -28 4 -2 10 3 17 12 17 10 0 16 -9
16 -21z m-546 -44 c3 -8 1 -15 -3 -15 -5 0 -11 7 -15 15 -3 8 -1 15 3 15 5 0
11 -7 15 -15z m217 2 c24 -18 49 -157 28 -157 -19 0 -8 -21 16 -30 14 -5 25
-14 25 -19 0 -20 -177 -186 -181 -169 -1 5 -1 172 0 186 1 6 8 12 16 12 23 0
19 47 -5 53 -16 4 -20 13 -20 49 0 51 15 81 29 59 7 -11 12 -10 22 8 15 23 45
27 70 8z m2049 -1 c0 -24 -16 -27 -35 -6 -18 19 -17 20 8 20 17 0 27 -5 27
-14z m410 -5 c0 -11 -5 -23 -10 -26 -6 -4 -8 -11 -5 -16 8 -12 55 0 79 20 17
15 18 15 15 -8 -3 -19 -15 -28 -58 -43 -40 -13 -58 -15 -68 -7 -16 14 -17 71
-1 87 19 19 48 15 48 -7z m-467 -50 c-7 -33 -9 -35 -23 -26 -8 5 -9 45 0 85 0
3 7 -4 15 -14 9 -12 12 -29 8 -45z m-2606 23 c-3 -3 -12 -4 -19 -1 -8 3 -5 6
6 6 11 1 17 -2 13 -5z m390 -74 c1 -11 -2 -20 -8 -20 -5 0 -9 9 -9 20 0 11 4
20 8 20 4 0 8 -9 9 -20z m373 -94 c0 -8 -7 -17 -16 -20 -21 -8 -26 -3 -18 18
8 20 34 21 34 2z m-562 -28 c19 -19 15 -92 -7 -112 -25 -23 -31 -10 -28 63 2
60 11 73 35 49z m2502 -14 c0 -8 -4 -12 -10 -9 -5 3 -10 13 -10 21 0 8 5 12
10 9 6 -3 10 -13 10 -21z m-2335 -64 c3 -5 1 -10 -4 -10 -6 0 -11 5 -11 10 0
6 2 10 4 10 3 0 8 -4 11 -10z m726 -22 c1 -7 1 -17 0 -22 -1 -4 3 -14 9 -21 8
-9 7 -14 -3 -18 -8 -3 -23 7 -36 23 -20 27 -20 30 -3 39 23 14 32 13 33 -1z
m-1194 -28 c14 -29 13 -31 -15 -23 -15 4 -22 13 -22 30 0 30 20 26 37 -7z
m483 -40 c0 -5 -5 -10 -11 -10 -5 0 -7 5 -4 10 3 6 8 10 11 10 2 0 4 -4 4 -10z
m758 -70 c-2 -8 -11 -16 -21 -18 -13 -3 -17 3 -17 27 0 29 2 30 20 19 11 -7
19 -20 18 -28z m-944 -3 c-3 -9 -12 -17 -20 -17 -17 0 -17 5 -3 32 13 24 33
10 23 -15z m2838 -10 c7 -8 19 -12 26 -9 20 6 14 -5 -13 -22 -31 -21 -69 -12
-90 20 -15 24 -15 24 24 24 22 0 46 -6 53 -13z m-2829 -61 c5 -12 -9 -69 -21
-86 -7 -10 -22 27 -22 57 0 38 32 59 43 29z m-336 -58 c-3 -7 -5 -2 -5 12 0
14 2 19 5 13 2 -7 2 -19 0 -25z m1343 -9 c0 -12 -7 -19 -20 -19 -26 0 -36 25
-20 45 16 19 40 2 40 -26z m-1343 -51 c-3 -7 -5 -2 -5 12 0 14 2 19 5 13 2 -7
2 -19 0 -25z m1669 4 c6 -4 13 -15 17 -24 3 -10 15 -18 26 -18 33 0 51 -49 51
-135 0 -58 -3 -77 -15 -81 -8 -4 -15 -15 -15 -26 0 -19 -2 -18 -21 6 -16 20
-19 34 -14 54 13 47 14 126 2 147 -6 11 -10 23 -9 28 1 4 -9 5 -23 1 -15 -4
-25 -2 -25 5 0 6 -7 11 -15 11 -20 0 -19 17 3 29 21 12 24 13 38 3z m-1669
-64 c-3 -8 -6 -5 -6 6 -1 11 2 17 5 13 3 -3 4 -12 1 -19z m2218 -7 c0 -18 -11
-30 -40 -47 -22 -12 -75 -57 -118 -98 -43 -42 -85 -76 -93 -76 -26 0 -9 -25
17 -26 13 0 37 -4 52 -7 26 -7 27 -11 26 -55 -2 -65 6 -119 21 -137 11 -13 10
-23 -1 -58 -8 -25 -15 -35 -17 -25 -3 13 -19 2 -67 -46 -52 -51 -76 -68 -119
-80 -30 -9 -61 -16 -69 -16 -9 0 -18 -4 -21 -9 -3 -5 -25 -19 -48 -31 -24 -12
-62 -40 -85 -63 -24 -22 -45 -38 -49 -34 -4 3 -10 41 -14 84 -5 43 -11 89 -15
103 -8 33 10 80 30 80 8 0 15 4 15 8 0 4 25 35 55 67 30 33 55 63 55 66 0 3
17 24 39 46 21 23 41 52 44 64 3 13 9 35 13 48 6 20 4 23 -9 18 -10 -4 -17 -2
-17 3 0 6 7 10 15 10 8 0 29 16 48 35 19 19 38 35 44 35 5 0 20 11 33 25 13
14 26 21 29 16 4 -5 17 -12 31 -16 21 -5 27 -1 37 25 6 16 7 30 2 30 -5 0 -9
5 -9 11 0 8 12 10 36 6 25 -4 41 -2 51 8 13 13 11 15 -11 15 -14 0 -26 4 -26
9 0 13 72 40 105 38 25 -2 30 -6 30 -26z m-2238 -13 c-3 -8 -6 -5 -6 6 -1 11
2 17 5 13 3 -3 4 -12 1 -19z m293 2 c0 -5 -4 -12 -10 -15 -5 -3 -10 -4 -10 -1
0 2 -3 12 -6 20 -5 12 -2 15 10 10 9 -3 16 -10 16 -14z m1159 -44 c14 -17 0
-29 -23 -20 -17 7 -20 16 -9 27 10 11 19 8 32 -7z m-1185 -60 c-4 -26 -10 -42
-14 -36 -7 11 9 95 16 87 2 -2 1 -25 -2 -51z m-20 -108 c-4 -18 -10 -91 -14
-163 l-8 -130 1 140 c1 152 4 185 19 185 6 0 7 -13 2 -32z m1563 -4 c-3 -3
-12 -4 -19 -1 -8 3 -5 6 6 6 11 1 17 -2 13 -5z m-281 -25 c3 -6 1 -16 -4 -21
-13 -13 -45 8 -36 23 7 12 31 11 40 -2z m-1568 -72 c17 -15 26 -18 29 -9 7 19
25 14 21 -5 -2 -10 5 -22 16 -28 11 -5 20 -19 22 -29 2 -11 5 -30 9 -43 4 -18
2 -21 -11 -16 -14 5 -16 2 -12 -15 7 -25 -9 -41 -18 -19 -3 8 -14 17 -25 20
-25 7 -25 27 1 27 26 0 26 16 1 23 -12 3 -27 -3 -37 -14 -9 -10 -30 -19 -46
-19 -24 0 -30 5 -34 29 -4 17 -12 32 -20 35 -19 7 -18 42 4 72 21 30 62 26
100 -9z m272 -208 c0 -25 -22 -49 -45 -49 -25 0 -31 13 -19 44 7 18 64 23 64
5z m0 -64 c0 -8 -9 -15 -20 -15 -12 0 -25 -10 -32 -25 -13 -29 -21 -31 -39 -8
-10 12 -11 17 -2 20 7 2 9 11 6 20 -5 12 0 14 23 9 16 -3 36 -2 44 4 20 13 20
13 20 -5z m-225 -63 c-8 -8 -25 10 -25 26 0 13 2 13 14 -4 8 -10 13 -21 11
-22z m231 -10 c-11 -10 -15 4 -8 28 l7 25 3 -23 c2 -13 1 -26 -2 -30z m-216
-25 c0 -13 -5 -28 -12 -35 -9 -9 -6 -14 13 -21 29 -10 40 -6 32 14 -3 8 0 15
7 15 6 0 8 5 5 10 -3 6 -1 10 4 10 6 0 10 5 9 12 -6 24 29 18 61 -11 34 -31
51 -32 51 -5 0 8 5 14 11 14 7 0 9 -10 5 -24 -4 -15 -1 -28 6 -33 7 -4 21 -18
32 -30 18 -21 18 -24 2 -48 -9 -14 -26 -25 -39 -25 -25 0 -97 45 -97 60 0 6
-7 10 -16 10 -14 0 -14 -2 0 -22 9 -12 16 -33 16 -45 0 -13 5 -23 10 -23 6 0
10 -7 10 -16 0 -11 5 -14 18 -9 13 5 14 4 5 -6 -10 -10 -16 -9 -30 4 -11 10
-24 13 -33 8 -8 -5 -25 -12 -37 -15 -19 -6 -23 -3 -23 13 0 12 -6 21 -12 21
-23 0 -39 16 -33 32 4 10 14 14 26 11 13 -4 19 0 19 12 0 12 -6 16 -20 12 -13
-3 -24 3 -35 19 -14 22 -14 27 2 57 9 17 16 38 15 45 -2 6 4 12 13 12 9 0 15
-9 15 -23z m-106 1 c-3 -4 7 -9 23 -9 18 -1 22 -3 10 -6 -22 -6 -67 4 -67 15
0 4 9 8 19 8 11 0 17 -4 15 -8z m373 -152 c-3 -7 0 -19 6 -25 17 -17 1 -24
-22 -10 -19 12 -19 15 -4 31 19 21 27 23 20 4z m1590 -492 c13 -4 20 -10 17
-15 -3 -5 2 -9 10 -9 9 0 16 5 16 10 0 6 7 10 15 10 8 0 15 -4 15 -10 0 -5 7
-10 15 -10 8 0 15 4 15 8 0 11 67 14 74 3 3 -5 15 -7 26 -4 11 3 20 0 20 -6 0
-6 -4 -12 -10 -12 -5 -1 -15 -2 -20 -3 -6 0 -14 -5 -18 -11 -15 -22 -48 -31
-82 -24 -37 8 -77 3 -97 -13 -7 -6 -19 -5 -32 1 -14 8 -20 8 -23 -1 -8 -22
-62 -15 -85 12 -26 29 -30 50 -8 50 8 0 15 -4 15 -10 0 -17 17 -11 47 15 29
25 50 29 90 19z m338 -4 c-3 -5 -10 -10 -16 -10 -5 0 -9 5 -9 10 0 6 7 10 16
10 8 0 12 -4 9 -10z m-45 -10 c0 -5 -9 -10 -21 -10 -11 0 -17 5 -14 10 3 6 13
10 21 10 8 0 14 -4 14 -10z m-476 -33 c27 -25 37 -58 19 -64 -11 -4 -63 62
-63 79 0 15 19 8 44 -15z m1317 -2 c8 -208 -1 -247 -62 -260 -16 -4 -29 -11
-29 -17 0 -6 -10 -4 -22 4 -13 8 -51 20 -85 28 -35 7 -63 17 -63 21 0 9 98
109 107 109 3 0 35 29 71 65 69 68 82 75 83 50z m-1631 -10 c0 -9 -6 -12 -15
-9 -8 4 -15 10 -15 15 0 5 7 9 15 9 8 0 15 -7 15 -15z m66 4 c10 -17 -13 -36
-27 -22 -12 12 -4 33 11 33 5 0 12 -5 16 -11z m144 5 c0 -17 -76 -62 -86 -51
-7 7 11 25 41 44 21 13 45 17 45 7z m-1020 -34 c40 -29 54 -96 27 -126 -19
-20 -22 -20 -51 -6 -42 20 -41 18 -22 46 20 31 20 40 1 32 -8 -3 -15 -1 -15 3
0 5 6 11 13 14 8 3 6 9 -7 19 -19 15 -19 15 0 26 25 15 21 15 54 -8z m920 10
c0 -5 -5 -10 -11 -10 -5 0 -7 5 -4 10 3 6 8 10 11 10 2 0 4 -4 4 -10z m-826
-6 c12 -5 16 -21 16 -66 0 -55 -1 -59 -17 -47 -19 17 -43 70 -43 99 0 20 15
25 44 14z m646 -15 c0 -6 -4 -7 -10 -4 -5 3 -10 11 -10 16 0 6 5 7 10 4 6 -3
10 -11 10 -16z m98 -6 c2 -8 -5 -13 -17 -13 -12 0 -21 6 -21 16 0 18 31 15 38
-3z m156 -102 c3 -4 0 -22 -6 -38 -11 -29 -12 -29 -40 -16 -28 15 -30 37 -2
26 10 -4 17 2 21 16 6 22 18 27 27 12z m84 -16 c-6 -14 -13 -23 -15 -21 -5 5
15 46 22 46 3 0 -1 -11 -7 -25z m-981 -19 c-2 -6 2 -15 9 -21 8 -6 16 -39 19
-77 3 -37 10 -79 15 -94 14 -35 16 -172 3 -185 -12 -12 -43 14 -43 37 0 22
-16 16 -28 -11 -13 -28 -24 -30 -69 -15 -18 7 -39 7 -54 2 -27 -10 -59 -5 -59
9 0 5 7 9 16 9 13 0 49 21 83 47 2 1 -3 11 -13 22 -16 17 -16 18 6 17 18 -1
24 -8 26 -31 3 -26 25 -54 45 -55 12 0 8 29 -9 61 -14 28 -14 32 2 43 23 17 9
40 -16 26 -10 -5 -30 -10 -44 -10 -13 0 -26 -6 -29 -12 -2 -7 -8 -10 -12 -5
-5 4 1 17 13 30 12 13 22 28 22 34 0 6 6 14 13 16 9 4 8 8 -3 16 -8 6 -10 11
-4 11 19 0 39 48 26 63 -18 22 39 97 68 90 11 -3 19 -11 17 -17z m1033 14 c0
-5 -2 -10 -4 -10 -3 0 -8 5 -11 10 -3 6 -1 10 4 10 6 0 11 -4 11 -10z m-1900
-20 c0 -5 -7 -10 -16 -10 -8 0 -12 5 -9 10 3 6 10 10 16 10 5 0 9 -4 9 -10z
m2017 4 c-3 -3 -12 -4 -19 -1 -8 3 -5 6 6 6 11 1 17 -2 13 -5z m24 -13 c-11
-7 -10 -13 5 -35 11 -14 22 -26 27 -26 11 0 8 25 -5 38 -7 7 -8 12 -2 12 5 0
17 -13 27 -29 14 -23 14 -33 4 -54 -18 -40 -34 -40 -40 0 -3 19 -11 41 -18 49
-15 18 -45 18 -53 -1 -10 -27 -35 -18 -32 13 5 37 4 36 19 24 9 -8 20 -7 37 3
28 14 53 20 31 6z m173 -50 c11 -12 25 -21 31 -21 7 0 18 -7 25 -15 18 -22 -2
-19 -44 6 -31 18 -36 19 -36 5 0 -9 10 -21 23 -26 22 -9 22 -9 1 -9 -22 -1
-54 49 -54 83 0 20 25 9 54 -23z m-344 -33 c22 -24 26 -38 10 -38 -5 0 -10 5
-10 10 0 6 -7 10 -16 10 -10 0 -14 6 -11 14 3 8 1 17 -6 20 -9 3 -9 5 0 5 7 1
21 -9 33 -21z m1315 -128 c-7 -52 -25 -78 -25 -38 -1 20 -4 18 -24 -16 -14
-21 -22 -44 -19 -52 10 -27 -21 -56 -99 -94 -45 -22 -87 -40 -95 -40 -18 0
-17 16 2 24 24 9 17 24 -15 31 -17 4 -27 11 -24 16 3 6 12 8 20 5 8 -3 18 2
21 11 4 9 1 19 -5 21 -8 2 -12 27 -12 68 0 57 2 64 19 64 11 0 23 5 26 10 3 6
1 10 -5 10 -6 0 -8 5 -5 10 3 6 15 10 26 10 10 0 19 5 19 10 0 6 33 10 80 10
64 0 82 3 87 15 5 13 8 13 20 -5 11 -15 13 -34 8 -70z m-3155 76 c0 -2 -7 -7
-16 -10 -8 -3 -12 -2 -9 4 6 10 25 14 25 6z m1870 -10 c0 -3 -4 -8 -10 -11 -5
-3 -10 -1 -10 4 0 6 5 11 10 11 6 0 10 -2 10 -4z m-1543 -78 c-3 -8 -6 -5 -6
6 -1 11 2 17 5 13 3 -3 4 -12 1 -19z m1720 -44 c-3 -3 -12 -4 -19 -1 -8 3 -5
6 6 6 11 1 17 -2 13 -5z m-347 -10 c0 -3 -7 -12 -15 -20 -12 -13 -15 -13 -15
-1 0 7 3 17 7 20 8 8 23 9 23 1z m-1609 -55 c-1 -24 -6 -48 -11 -53 -13 -13
-23 32 -15 71 9 50 30 37 26 -18z m2108 31 c79 -25 89 -33 97 -77 5 -27 2 -38
-15 -54 -11 -11 -21 -24 -21 -29 0 -12 -37 -13 -44 -1 -3 5 3 11 14 14 15 4
20 14 20 41 0 20 -3 35 -7 34 -5 0 -16 3 -27 7 -23 10 -52 -7 -48 -29 3 -17
-3 -19 -33 -7 -16 6 -20 18 -20 64 -1 34 3 57 9 57 6 0 40 -9 75 -20z m-1844
-40 c-3 -5 -11 -10 -16 -10 -6 0 -7 5 -4 10 3 6 11 10 16 10 6 0 7 -4 4 -10z
m1869 -66 c9 -22 8 -24 -9 -24 -8 0 -15 9 -15 20 0 24 15 27 24 4z m193 -6
c-3 -8 -6 -5 -6 6 -1 11 2 17 5 13 3 -3 4 -12 1 -19z m-3 -31 c8 -6 7 -10 -3
-14 -8 -3 -9 -8 -3 -12 5 -3 6 -15 2 -26 -6 -17 -9 -13 -20 22 -7 23 -9 49 -5
60 8 17 8 17 13 -2 2 -11 9 -24 16 -28z m-257 7 c-3 -3 -12 -4 -19 -1 -8 3 -5
6 6 6 11 1 17 -2 13 -5z m-1375 -21 c9 -10 18 -35 20 -55 5 -49 -17 -59 -48
-21 -46 55 -18 128 28 76z m1592 -15 c18 -34 20 -48 8 -48 -4 0 -14 15 -22 33
-7 17 -15 35 -18 40 -2 4 1 7 6 7 6 0 18 -14 26 -32z m-154 -49 c12 -22 8 -35
-8 -25 -13 8 -22 46 -11 46 4 0 13 -9 19 -21z m140 1 c0 -5 -9 -14 -19 -19
-16 -9 -18 -8 -14 9 5 20 33 29 33 10z m-40 -8 c0 -4 -6 -14 -12 -21 -10 -11
-10 -13 0 -7 8 5 12 -1 12 -18 0 -18 -4 -24 -15 -20 -15 6 -21 55 -8 67 9 10
23 9 23 -1z m-1972 -40 c10 -21 9 -29 -5 -44 -9 -10 -22 -18 -30 -18 -7 0 -13
-6 -13 -13 0 -22 -69 -18 -81 4 -8 15 -6 21 6 25 12 5 13 9 4 21 -11 12 -8 13
14 8 24 -6 27 -4 27 17 0 21 5 25 33 25 26 0 36 -6 45 -25z m1848 -59 c-8 -8
-36 5 -36 17 0 7 6 7 21 0 11 -7 18 -14 15 -17z m171 -60 c-2 -36 -8 -40 -27
-18 -7 8 -19 15 -26 15 -8 0 -14 4 -14 8 0 17 13 21 31 11 23 -12 24 -1 4 25
-23 31 -18 38 10 14 18 -16 24 -30 22 -55z m-1985 37 c1 -9 -1 -18 -6 -20 -5
-3 -10 8 -12 24 -3 29 11 25 18 -4z m1855 -24 c4 -3 -5 -6 -20 -6 -14 0 -32
-3 -40 -6 -8 -3 -17 1 -19 8 -4 9 5 13 34 11 22 0 42 -4 45 -7z m-887 -59 c0
-5 -4 -5 -10 -2 -5 3 -10 14 -10 23 0 15 2 15 10 2 5 -8 10 -19 10 -23z m720
-18 c0 -11 -4 -17 -10 -14 -5 3 -10 15 -10 26 0 11 5 17 10 14 6 -3 10 -15 10
-26z m375 10 c11 -16 1 -19 -13 -3 -7 8 -8 14 -3 14 5 0 13 -5 16 -11z m-455
-25 c0 -8 -4 -12 -10 -9 -5 3 -10 10 -10 16 0 5 5 9 10 9 6 0 10 -7 10 -16z
m140 -25 c0 -5 10 -9 23 -9 27 0 65 -25 55 -36 -4 -4 -13 -2 -20 3 -7 6 -25
13 -41 17 -32 8 -67 35 -67 53 0 10 6 9 25 -3 14 -9 25 -20 25 -25z m-725 11
c3 -5 1 -10 -4 -10 -6 0 -11 5 -11 10 0 6 2 10 4 10 3 0 8 -4 11 -10z m568
-22 c3 -10 8 -10 22 2 16 13 17 12 14 -4 -6 -28 -37 -45 -49 -26 -12 19 -13
40 -1 40 5 0 11 -6 14 -12z m132 -28 c3 -5 1 -10 -4 -10 -6 0 -11 5 -11 10 0
6 2 10 4 10 3 0 8 -4 11 -10z m35 -10 c0 -5 -5 -10 -11 -10 -5 0 -7 5 -4 10 3
6 8 10 11 10 2 0 4 -4 4 -10z m158 -26 c31 10 52 -4 52 -34 0 -26 -1 -27 -35
-16 -19 6 -35 16 -35 23 0 19 -20 26 -35 13 -12 -10 -15 -9 -15 3 0 19 21 28
37 15 7 -5 21 -7 31 -4z m-140 -35 c-21 -17 -38 -36 -38 -42 0 -6 12 -23 27
-39 14 -15 24 -30 22 -32 -11 -11 -54 21 -57 42 -2 12 -8 22 -13 22 -5 0 -9 8
-9 17 0 24 50 62 80 62 24 0 23 -1 -12 -30z m42 1 c0 -5 -5 -10 -11 -10 -5 0
-7 5 -4 10 3 6 8 10 11 10 2 0 4 -4 4 -10z m227 -42 c-3 -7 -5 -2 -5 12 0 14
2 19 5 13 2 -7 2 -19 0 -25z m-197 15 c0 -5 20 -8 45 -8 40 0 45 -2 45 -22 0
-29 20 -30 27 -3 3 12 11 19 17 17 16 -5 20 -36 6 -52 -14 -17 -50 -20 -50 -5
0 6 -9 10 -21 10 -16 0 -19 4 -14 22 6 17 4 20 -10 14 -10 -3 -31 -1 -46 6
-31 14 -38 28 -14 28 8 0 15 -3 15 -7z m230 -68 c7 -9 8 -15 2 -15 -5 0 -12 7
-16 15 -3 8 -4 15 -2 15 2 0 9 -7 16 -15z m-485 -5 c-3 -5 -15 -10 -26 -10
-10 0 -19 5 -19 10 0 6 12 10 26 10 14 0 23 -4 19 -10z m330 -30 c-3 -5 -25
-10 -48 -10 -31 0 -38 3 -27 10 20 13 83 13 75 0z m-327 -68 l4 -24 -21 21
c-26 26 -26 34 -3 29 9 -2 18 -14 20 -26z m-208 -20 c0 -12 -23 -32 -37 -32
-17 0 -17 27 0 33 19 8 37 8 37 -1z m121 -15 c12 4 19 0 19 -10 0 -20 -47 -29
-54 -10 -3 8 -10 11 -16 8 -5 -3 -10 -2 -10 3 0 16 12 22 28 13 8 -5 23 -6 33
-4z m125 -14 c20 -26 17 -41 -12 -59 -37 -25 -51 -6 -29 40 20 41 23 43 41 19z
m-58 -14 c-2 -13 -16 -26 -36 -35 l-33 -13 20 28 c11 16 18 31 14 35 -3 3 4 6
16 6 17 0 22 -5 19 -21z m-133 -20 c4 -6 17 -14 29 -19 20 -8 20 -9 -4 -9 -25
-1 -50 15 -50 31 0 12 18 10 25 -3z m-32 -13 c17 -13 23 -36 9 -36 -13 0 -52
30 -52 41 0 13 22 11 43 -5z m684 -38 c-3 -8 -6 -5 -6 6 -1 11 2 17 5 13 3 -3
4 -12 1 -19z m-537 2 c0 -5 -12 -10 -26 -10 -14 0 -23 4 -19 10 3 6 15 10 26
10 10 0 19 -4 19 -10z m-73 -6 c-3 -3 -12 -4 -19 -1 -8 3 -5 6 6 6 11 1 17 -2
13 -5z"/>
<path d="M600 4875 c7 -8 26 -15 43 -15 38 0 25 15 -22 24 -29 5 -32 4 -21 -9z"/>
<path d="M565 4849 c-4 -6 -4 -13 -1 -16 8 -8 36 5 36 17 0 13 -27 13 -35 -1z"/>
<path d="M715 4820 c3 -5 8 -10 11 -10 2 0 4 5 4 10 0 6 -5 10 -11 10 -5 0 -7
-4 -4 -10z"/>
<path d="M665 4811 c-7 -12 12 -24 25 -16 11 7 4 25 -10 25 -5 0 -11 -4 -15
-9z"/>
<path d="M383 2333 c-18 -7 -16 -23 2 -23 8 0 15 7 15 15 0 8 -1 15 -2 14 -2
0 -9 -3 -15 -6z"/>
<path d="M2068 1709 c-28 -30 -21 -41 7 -13 14 14 25 27 25 29 0 10 -16 2 -32
-16z"/>
<path d="M2111 1684 c0 -11 3 -14 6 -6 3 7 2 16 -1 19 -3 4 -6 -2 -5 -13z"/>
<path d="M916 1335 c-8 -23 -8 -35 3 -35 13 0 20 25 11 39 -5 10 -9 8 -14 -4z"/>
<path d="M3000 1134 c0 -8 5 -12 10 -9 6 4 8 11 5 16 -9 14 -15 11 -15 -7z"/>
<path d="M2250 1140 c0 -5 4 -10 9 -10 6 0 13 5 16 10 3 6 -1 10 -9 10 -9 0
-16 -4 -16 -10z"/>
<path d="M1695 4165 c-4 -11 -16 -40 -26 -64 -10 -24 -17 -47 -14 -51 3 -5 1
-11 -5 -15 -17 -11 -12 -45 8 -45 33 1 91 68 77 90 -6 10 -44 -6 -57 -25 -15
-20 -8 7 13 46 11 22 18 50 16 62 -3 21 -4 21 -12 2z"/>
<path d="M4972 3896 c-42 -38 -77 -102 -99 -179 -20 -75 -28 -269 -14 -352 13
-79 76 -218 115 -254 13 -12 30 -37 37 -54 12 -28 11 -32 -9 -45 -12 -8 -22
-21 -22 -29 0 -8 -4 -12 -8 -9 -5 3 -23 -10 -41 -28 -22 -22 -29 -36 -21 -41
8 -5 7 -14 -5 -31 -19 -29 -33 -167 -39 -378 -6 -177 8 -247 61 -310 18 -22
33 -42 33 -46 0 -3 16 -12 35 -19 19 -7 35 -16 35 -21 0 -19 -21 -20 -57 -4
-21 10 -42 19 -48 22 -5 2 8 -12 30 -32 61 -55 132 -60 213 -14 51 28 113 86
102 93 -6 4 -4 12 5 21 8 9 15 22 15 30 0 16 -27 19 -32 4 -6 -19 -200 4 -249
29 -93 49 -129 123 -109 225 6 32 10 105 9 160 -3 100 16 226 34 226 4 0 5
-21 1 -47 -8 -55 0 -54 20 3 l13 39 1 -84 c1 -109 10 -185 28 -242 18 -55 82
-129 112 -129 12 0 22 -4 22 -9 0 -5 20 -19 45 -31 44 -21 48 -21 118 -7 101
21 130 34 123 53 -3 9 -6 21 -6 27 0 6 -9 1 -20 -11 -24 -25 -27 -26 -140 -11
-77 9 -124 29 -108 45 4 3 40 1 81 -6 62 -9 81 -8 118 4 26 9 45 12 47 6 13
-37 36 47 25 89 -5 21 -16 18 -110 -26 -21 -10 -65 -15 -125 -16 -116 -1 -159
18 -157 68 0 11 3 14 6 8 2 -7 10 -13 17 -13 7 0 21 -8 30 -19 18 -20 89 -34
125 -24 22 6 22 7 -9 19 -50 22 -108 72 -136 119 -14 24 -31 49 -39 55 -11 9
-15 34 -15 87 0 47 -4 72 -10 68 -13 -8 -13 21 0 46 14 25 33 25 25 -1 -4 -11
-2 -35 3 -53 6 -17 13 -44 16 -59 8 -34 26 -37 26 -5 1 18 4 16 20 -14 11 -20
33 -48 50 -63 30 -24 33 -25 66 -11 43 18 116 68 159 109 18 17 40 36 50 41
18 11 31 80 21 119 -10 40 -33 32 -40 -15 -4 -22 -14 -52 -23 -66 -15 -22 -22
-25 -64 -21 -46 5 -124 48 -101 56 21 7 13 32 -10 33 -21 1 -21 2 -3 6 11 3
48 18 82 34 67 31 83 35 83 19 0 -5 -4 -10 -10 -10 -5 0 -10 -6 -10 -14 0 -7
-6 -19 -14 -25 -19 -16 -26 -59 -11 -71 18 -15 44 29 52 87 6 46 38 93 64 93
5 0 9 23 9 50 0 28 -2 50 -5 50 -12 0 -115 -102 -115 -113 0 -13 -93 -48 -102
-39 -5 5 -30 6 -57 2 -53 -7 -89 2 -95 22 -2 7 -10 37 -19 65 l-15 53 44 30
c30 20 63 32 99 36 72 9 70 22 -2 21 -32 0 -73 3 -91 8 -29 6 -33 10 -28 30 4
15 1 25 -8 28 -8 3 -22 17 -31 30 -15 23 -14 29 5 78 11 30 20 66 20 81 0 41
-45 87 -92 94 -35 6 -39 9 -32 28 4 12 8 39 9 61 2 47 15 98 23 91 3 -3 11 3
19 14 8 11 20 20 28 20 8 0 17 5 21 12 4 7 3 8 -4 4 -7 -4 -12 -3 -12 3 0 16
102 1 139 -20 18 -11 36 -18 38 -15 3 2 -19 30 -49 60 -67 69 -98 74 -156 22z
m-8 -492 c8 -20 -4 -65 -21 -83 -16 -15 -16 -15 -32 16 -18 34 -13 63 12 73
31 12 34 12 41 -6z m-7 -526 c-3 -7 -5 -2 -5 12 0 14 2 19 5 13 2 -7 2 -19 0
-25z m167 -807 c5 -8 -39 -21 -73 -21 -11 0 -8 5 9 14 29 17 57 20 64 7z"/>
<path d="M1750 3915 c0 -1 7 -15 15 -31 8 -16 12 -39 9 -51 -4 -13 -2 -23 4
-23 13 0 27 63 19 84 -4 11 -47 31 -47 21z"/>
<path d="M1640 3846 c0 -9 -7 -16 -16 -16 -20 0 -64 -45 -64 -66 0 -9 9 -18
20 -21 13 -4 20 -14 20 -30 0 -21 -4 -24 -32 -21 -26 2 -35 -2 -43 -19 -5 -13
-13 -23 -17 -23 -5 0 -8 -7 -8 -15 0 -8 5 -15 11 -15 7 0 18 -8 25 -17 8 -11
13 -13 14 -5 0 15 80 17 80 2 0 -5 11 -10 25 -10 14 0 35 -6 46 -12 18 -11 23
-10 40 11 10 13 19 32 19 42 0 17 -3 18 -22 8 -13 -7 -28 -19 -34 -27 -13 -18
-35 -7 -28 13 4 10 -4 15 -28 17 -25 2 -33 8 -33 23 0 22 44 55 72 53 10 -1
31 2 46 6 l29 7 -27 24 c-28 27 -45 31 -62 14 -18 -18 -58 -7 -58 16 0 14 6
19 18 17 9 -2 23 1 31 5 12 7 11 12 -5 32 -14 17 -19 19 -19 7z m97 -112 c-3
-3 -12 -4 -19 -1 -8 3 -5 6 6 6 11 1 17 -2 13 -5z"/>
<path d="M6510 3680 c0 -19 3 -21 12 -12 9 9 9 15 0 24 -9 9 -12 7 -12 -12z"/>
<path d="M3690 3653 c-10 -12 -11 -18 -2 -21 13 -4 17 -33 5 -30 -5 1 -18 -1
-31 -6 -18 -6 -21 -12 -16 -34 9 -37 14 -40 28 -19 7 9 18 17 24 17 13 0 36
76 28 96 -7 18 -18 17 -36 -3z"/>
<path d="M5166 3648 c-66 -14 -97 -58 -43 -58 16 0 18 -3 9 -9 -17 -10 -9 -70
10 -82 20 -13 52 -11 88 8 19 9 46 16 62 16 29 0 33 5 20 22 -14 19 -48 33
-102 40 -48 7 -52 9 -36 21 10 7 38 16 63 20 33 5 41 9 33 19 -12 14 -50 16
-104 3z"/>
<path d="M6540 3570 c0 -5 5 -10 11 -10 5 0 7 5 4 10 -3 6 -8 10 -11 10 -2 0
-4 -4 -4 -10z"/>
<path d="M3463 3562 c-13 -2 -23 -6 -23 -9 0 -10 52 -54 57 -49 3 3 13 2 22
-3 9 -4 30 -11 48 -14 30 -6 31 -5 24 21 -6 22 -15 28 -51 34 -24 4 -46 11
-49 15 -3 5 -16 7 -28 5z"/>
<path d="M3723 3518 c-6 -13 -16 -42 -21 -65 l-10 -42 85 -41 c46 -22 100 -51
120 -64 37 -26 76 -96 67 -121 -3 -8 -2 -20 2 -27 5 -7 7 -22 6 -33 -2 -12 11
-34 33 -55 l35 -34 0 26 c0 15 5 30 10 33 12 8 6 32 -21 91 -11 23 -17 49 -13
58 4 9 0 24 -9 34 -24 28 -28 56 -13 99 8 22 16 60 17 84 l4 43 -47 12 c-26 6
-49 10 -52 7 -2 -3 -14 0 -25 7 -15 8 -37 8 -74 1 -32 -6 -56 -6 -61 0 -15 14
-22 11 -33 -13z"/>
<path d="M6527 3498 c-4 -12 -4 -24 -1 -27 6 -7 24 20 24 37 0 21 -17 13 -23
-10z"/>
<path d="M6556 3484 c-4 -14 -5 -29 -2 -31 3 -3 8 7 12 21 3 15 4 29 1 32 -2
3 -8 -7 -11 -22z"/>
<path d="M3622 3479 c2 -6 8 -10 13 -10 5 0 11 4 13 10 2 6 -4 11 -13 11 -9 0
-15 -5 -13 -11z"/>
<path d="M6497 3448 c-2 -7 -2 -38 1 -69 3 -43 1 -59 -12 -72 -11 -11 -15 -26
-11 -44 4 -21 3 -23 -3 -8 -8 18 -11 16 -27 -18 -9 -20 -24 -37 -31 -37 -8 0
-14 -4 -14 -10 0 -5 4 -10 10 -10 6 0 9 -5 8 -12 -2 -7 10 -14 27 -18 25 -4
31 -11 36 -44 4 -24 16 -47 35 -63 16 -13 24 -22 17 -18 -21 10 -31 -28 -28
-110 3 -62 7 -82 21 -92 17 -12 15 -17 -27 -61 -59 -61 -125 -160 -134 -200
-11 -51 7 -37 45 35 19 36 55 89 79 117 75 85 72 81 62 107 -6 17 -5 28 5 37
8 7 14 8 14 2 0 -5 8 -10 17 -10 13 0 14 -3 5 -12 -20 -20 -14 -36 17 -43 29
-6 29 -7 28 -76 -2 -52 2 -72 13 -79 13 -9 13 -11 0 -20 -8 -5 -10 -10 -5 -10
6 0 10 -36 10 -87 l0 -88 31 -3 c16 -2 43 2 60 9 16 7 34 13 39 13 22 3 91 29
105 41 8 6 55 31 103 54 111 53 190 128 280 267 100 154 208 382 206 433 0 9
-7 -2 -15 -24 -35 -97 -119 -228 -219 -345 -47 -55 -188 -190 -198 -190 -5 0
-27 -14 -48 -31 -21 -17 -39 -27 -39 -23 0 4 -10 -2 -22 -13 -13 -12 -39 -28
-59 -36 -36 -15 -37 -14 -48 9 -19 42 -14 53 28 60 23 4 48 16 60 30 12 13 25
24 31 24 5 0 10 7 10 16 0 13 -11 14 -67 9 -38 -3 -84 -2 -103 3 l-35 8 88 45
c87 43 184 116 271 200 56 56 158 181 152 187 -3 2 -18 -11 -33 -29 -46 -55
-64 -70 -76 -66 -7 2 -32 -15 -57 -39 -102 -96 -263 -214 -292 -214 -5 0 -8 5
-8 10 0 6 6 10 14 10 8 0 16 7 20 15 8 22 0 19 -57 -24 -55 -41 -103 -57 -137
-46 -18 6 -21 13 -17 41 7 49 -20 163 -48 206 -30 44 -44 136 -24 148 7 5 11
12 7 15 -3 4 -18 -1 -32 -10 l-26 -17 0 35 c0 42 7 48 66 52 25 2 48 5 51 8
10 11 -18 103 -40 128 -34 39 -74 63 -80 47z m-17 -262 c0 -21 -20 -30 -33
-17 -9 9 -8 14 3 21 21 14 30 12 30 -4z"/>
<path d="M6956 3393 c-44 -82 -104 -212 -109 -238 -6 -29 -6 -29 5 -5 7 14 34
70 61 125 53 110 69 145 62 145 -2 0 -11 -12 -19 -27z"/>
<path d="M3 3370 c0 -25 2 -35 4 -22 2 12 2 32 0 45 -2 12 -4 2 -4 -23z"/>
<path d="M3588 3353 c7 -3 16 -2 19 1 4 3 -2 6 -13 5 -11 0 -14 -3 -6 -6z"/>
<path d="M4106 3263 c-9 -51 -9 -110 -1 -155 4 -22 0 -70 -10 -119 -14 -73
-15 -83 -1 -98 9 -10 16 -22 16 -28 0 -6 7 -16 15 -23 12 -10 16 -8 25 14 13
34 20 33 60 -11 36 -41 34 -41 55 22 4 14 8 16 14 7 6 -9 12 -7 26 8 12 13 25
18 40 14 19 -5 23 -1 29 30 4 20 11 36 16 36 17 0 11 18 -16 47 -18 18 -28 24
-31 15 -3 -8 -17 -4 -46 16 -23 15 -51 33 -62 39 -16 8 -20 21 -20 69 0 48 -4
63 -23 82 -22 22 -42 29 -42 14 0 -5 -7 -17 -15 -28 -14 -16 -14 -15 0 14 17
35 12 72 -10 72 -7 0 -16 -16 -19 -37z m116 -253 c17 0 18 -2 8 -15 -16 -20
-23 -19 -38 6 -8 12 -10 29 -5 42 7 21 8 20 11 -5 2 -20 9 -28 24 -28z m-55
-45 c-1 -19 -7 -35 -13 -35 -6 0 -9 -13 -6 -30 3 -23 0 -30 -12 -30 -22 0 -20
26 7 82 12 26 23 48 24 48 1 0 1 -16 0 -35z m193 19 c0 -13 -21 -44 -30 -44
-14 0 -12 24 2 38 13 13 28 16 28 6z m-80 -13 c0 -23 -14 -41 -31 -41 -23 0
-24 4 -2 30 18 21 33 26 33 11z"/>
<path d="M5438 3277 c-3 -19 -2 -25 4 -19 6 6 8 18 6 28 -3 14 -5 12 -10 -9z"/>
<path d="M5425 3231 c-3 -5 -1 -12 5 -16 5 -3 10 1 10 9 0 18 -6 21 -15 7z"/>
<path d="M7554 3179 c-5 -8 -25 -63 -45 -124 -19 -60 -46 -130 -59 -155 -55
-109 -179 -248 -300 -338 -41 -31 -81 -62 -88 -69 -7 -7 -29 -15 -50 -18 -40
-7 -78 -22 -102 -41 -26 -20 -237 -84 -297 -90 -41 -4 -73 -21 -73 -38 0 -22
30 -74 46 -80 9 -4 28 0 43 8 14 8 72 39 129 69 56 30 115 58 130 61 39 10
143 66 169 92 13 13 68 55 124 94 128 91 205 170 267 273 80 135 144 318 124
354 -8 13 -11 13 -18 2z"/>
<path d="M5410 3029 c0 -5 5 -7 10 -4 6 3 10 8 10 11 0 2 -4 4 -10 4 -5 0 -10
-5 -10 -11z"/>
<path d="M2670 2908 c0 -72 44 -240 95 -365 27 -68 60 -206 57 -239 -3 -26 -8
-33 -33 -38 -32 -6 -31 -26 2 -26 10 0 19 -4 19 -9 0 -5 7 -17 16 -25 13 -14
13 -16 1 -16 -8 0 -17 -7 -21 -15 -4 -11 -22 -15 -68 -16 -55 -1 -59 -2 -33
-10 64 -20 280 15 305 50 3 4 22 15 43 24 20 10 37 22 37 26 0 11 46 31 72 31
18 0 19 2 7 16 -7 9 -13 40 -13 70 0 62 -16 75 -55 46 -61 -43 -119 -64 -178
-61 -32 2 -62 8 -68 13 -13 14 -33 65 -54 141 -10 33 -25 76 -33 95 -21 45
-41 111 -68 228 -21 85 -30 111 -30 80z"/>
<path d="M5424 2820 c-6 -14 -15 -40 -19 -58 -3 -17 -20 -46 -37 -62 -27 -27
-35 -30 -96 -30 -81 0 -139 15 -169 43 -34 31 -39 14 -12 -40 33 -66 90 -104
144 -96 50 8 132 45 174 81 32 27 32 28 29 107 -3 69 -5 76 -14 55z"/>
<path d="M3931 2771 c-11 -7 -11 -9 0 -13 12 -4 11 -8 -1 -23 -14 -17 -13 -17
10 -10 35 10 46 23 27 31 -9 3 -14 10 -11 15 7 11 -7 11 -25 0z"/>
<path d="M3560 2671 c-16 -16 -31 -49 -65 -141 -9 -25 -28 -60 -42 -79 -37
-48 -33 -106 12 -196 28 -54 53 -85 69 -85 16 0 38 38 24 42 -6 2 -12 23 -13
48 -1 27 -9 48 -19 56 -14 10 -15 16 -6 33 9 17 8 21 -5 21 -13 0 -13 3 2 27
26 40 59 73 72 73 6 0 11 4 11 8 0 5 18 28 40 52 22 24 40 52 40 62 0 11 4 28
10 38 6 12 6 27 1 42 -6 13 -10 19 -10 13 -1 -11 -80 -14 -96 -4 -5 4 -17 -1
-25 -10z m-40 -246 c0 -8 -7 -15 -15 -15 -8 0 -15 7 -15 15 0 8 7 15 15 15 8
0 15 -7 15 -15z"/>
<path d="M3746 2673 c-3 -3 -6 -15 -6 -25 0 -23 38 -38 90 -36 42 1 48 11 26
40 -12 16 -14 16 -36 1 -17 -12 -25 -13 -28 -5 -5 16 -37 33 -46 25z"/>
<path d="M5402 2630 c-11 -11 -25 -20 -29 -20 -4 0 -28 -14 -53 -31 l-45 -30
40 7 c50 8 114 40 122 60 10 27 -12 36 -35 14z"/>
<path d="M4074 2632 c-29 -19 -34 -187 -10 -314 8 -40 14 -110 15 -156 1 -45
7 -95 13 -110 6 -15 10 -33 9 -39 -1 -7 10 -52 25 -100 18 -61 33 -94 50 -106
13 -10 24 -25 24 -33 0 -8 5 -14 10 -14 6 0 10 -7 10 -15 0 -8 -8 -15 -17 -15
-16 0 -16 -2 -2 -15 23 -23 49 -9 49 26 0 16 4 29 9 29 11 0 22 -55 15 -75
-12 -31 13 -14 29 20 18 38 39 48 30 15 -3 -11 -10 -20 -15 -20 -6 0 -8 -12
-5 -29 5 -24 3 -28 -12 -24 -22 6 -34 -38 -20 -74 12 -32 41 -20 34 16 -3 14
-2 20 1 14 4 -10 9 -9 21 2 8 8 22 15 31 15 21 0 55 37 47 51 -4 5 -12 7 -18
3 -7 -3 -3 2 7 10 18 14 21 14 39 -2 19 -16 20 -16 13 11 -7 30 7 37 23 10 9
-16 10 -16 11 -2 0 9 -7 20 -16 23 -13 5 -11 12 13 43 23 30 24 36 9 30 -16
-6 -17 -5 -7 7 7 8 10 24 7 34 -4 10 0 32 9 48 20 38 19 46 -6 73 -24 26 -24
26 22 45 33 14 36 13 47 -5 7 -10 19 -19 28 -19 14 0 16 -8 11 -40 -3 -24 -1
-41 7 -44 17 -7 -16 -27 -37 -22 -13 3 -17 0 -15 -12 2 -9 -9 -30 -24 -47 -32
-34 -35 -53 -11 -62 10 -4 24 3 39 20 27 32 34 33 34 8 0 -15 5 -18 21 -14 18
5 20 3 14 -16 -4 -15 -2 -21 8 -21 9 0 17 -5 19 -11 3 -10 27 -1 120 46 23 11
27 11 32 -2 8 -20 36 1 36 28 0 10 9 23 20 29 11 6 24 20 30 31 10 17 6 27
-24 64 -20 24 -46 47 -59 51 -12 3 -32 15 -44 27 -20 18 -23 18 -29 3 -8 -22
-26 -20 -58 7 -23 20 -26 31 -27 87 -1 44 -8 75 -20 96 -13 22 -19 51 -19 93
0 45 -4 61 -14 61 -7 0 -16 10 -19 22 -10 38 -20 11 -19 -50 0 -48 -1 -52 -8
-24 -14 57 -29 58 -30 1 -1 -19 1 -60 3 -91 5 -78 -27 -80 -49 -3 -8 29 -8 29
-13 -15 -6 -42 -8 -45 -45 -52 -45 -10 -62 -28 -70 -80 -6 -37 -29 -56 -25
-20 1 9 -1 24 -4 32 -8 21 -16 195 -8 182 4 -6 7 8 8 31 1 23 5 69 8 103 5 48
3 64 -9 77 -9 8 -16 22 -16 29 0 10 3 9 10 -2 8 -12 10 -10 10 8 0 13 5 32 11
43 16 30 5 47 -25 42 -17 -4 -28 -14 -32 -29 -3 -13 -10 -24 -15 -24 -5 0 -9
-9 -9 -20 0 -10 -13 -42 -30 -70 -16 -28 -30 -54 -30 -57 0 -8 -33 -32 -44
-33 -4 0 -6 7 -3 15 4 8 0 27 -8 42 -10 18 -16 22 -19 12 -2 -8 -8 -30 -14
-49 -9 -30 -10 -22 -12 60 -1 52 -1 104 1 115 11 71 0 105 -27 87z m521 -472
c3 -5 -1 -10 -9 -10 -9 0 -16 5 -16 10 0 6 4 10 9 10 6 0 13 -4 16 -10z m235
-340 c0 -5 -4 -10 -10 -10 -5 0 -10 5 -10 10 0 6 5 10 10 10 6 0 10 -4 10 -10z"/>
<path d="M3311 2544 c0 -11 3 -14 6 -6 3 7 2 16 -1 19 -3 4 -6 -2 -5 -13z"/>
<path d="M6497 2512 c-15 -26 -41 -67 -57 -92 -34 -53 -48 -80 -90 -179 -26
-59 -32 -90 -35 -160 -4 -86 -4 -86 5 -22 11 75 36 130 141 306 71 120 83 148
80 183 -2 23 -16 12 -44 -36z"/>
<path d="M3860 2525 c0 -8 5 -15 10 -15 6 0 10 7 10 15 0 8 -4 15 -10 15 -5 0
-10 -7 -10 -15z"/>
<path d="M7176 2495 c-27 -13 -52 -28 -55 -32 -3 -5 -33 -30 -66 -55 -86 -67
-201 -175 -193 -183 3 -4 14 0 25 9 123 100 151 123 167 139 11 9 40 27 65 39
24 12 52 29 60 38 75 79 75 83 -3 45z"/>
<path d="M3316 2468 c4 -19 2 -30 -8 -33 -21 -8 -11 -67 11 -63 22 4 25 48 7
89 -13 29 -14 30 -10 7z"/>
<path d="M3870 2450 c-13 -8 -12 -10 3 -10 26 0 16 -22 -18 -40 -16 -8 -45
-31 -65 -50 -31 -32 -54 -47 -100 -64 -8 -3 3 -3 25 0 22 3 42 10 43 15 2 5
11 9 19 9 14 0 90 53 106 75 26 35 17 83 -13 65z"/>
<path d="M4950 2418 c0 -24 6 -40 17 -46 11 -7 16 -24 17 -53 1 -38 5 -46 30
-58 56 -26 361 18 412 60 16 13 19 49 5 49 -5 0 -23 -12 -40 -26 -17 -14 -68
-37 -113 -51 -67 -20 -94 -24 -148 -19 -100 10 -98 9 -92 25 3 8 1 12 -5 8
-10 -6 -28 25 -67 113 l-16 35 0 -37z"/>
<path d="M6120 2411 c0 -12 6 -21 16 -21 9 0 14 7 12 17 -5 25 -28 28 -28 4z"/>
<path d="M7195 2410 c-22 -10 -34 -19 -27 -19 15 -1 112 29 112 35 0 10 -49 1
-85 -16z"/>
<path d="M7040 2305 c0 -8 -7 -15 -15 -15 -8 0 -15 -3 -15 -7 0 -5 -14 -24
-32 -43 -36 -41 -118 -164 -118 -178 0 -6 -4 -12 -8 -14 -13 -5 -80 -153 -101
-221 -41 -132 -51 -170 -51 -184 0 -25 -40 -83 -57 -83 -9 0 -22 8 -29 18 -10
14 -25 17 -80 14 -45 -1 -70 2 -75 10 -5 7 -11 10 -14 7 -12 -13 8 -35 60 -69
30 -19 55 -38 55 -41 0 -4 24 -16 53 -29 58 -24 77 -43 77 -77 0 -16 6 -23 19
-23 15 0 19 -7 19 -28 -1 -15 4 -37 11 -49 6 -12 11 -31 11 -42 0 -12 4 -29 9
-39 5 -9 15 -36 22 -59 7 -25 18 -43 27 -43 9 0 12 -6 8 -16 -9 -24 22 -54 56
-54 30 0 39 23 13 34 -9 3 -12 12 -8 22 4 11 -2 23 -17 34 -31 23 -36 52 -7
41 16 -6 27 -1 49 24 24 28 58 92 58 111 0 3 -18 3 -39 -1 -48 -8 -131 3 -131
18 0 6 7 19 16 29 14 14 14 20 4 33 -7 8 -16 12 -21 10 -4 -3 -13 4 -19 15 -9
17 -7 22 14 29 13 6 27 15 31 20 3 6 15 11 25 11 34 0 34 22 -1 51 l-34 27 35
4 c29 2 35 7 35 26 0 12 11 29 23 38 25 17 21 34 -9 34 -17 0 -18 2 -4 18 61
70 74 89 64 99 -7 7 -7 13 -1 17 5 3 15 -8 22 -25 15 -35 41 -35 50 0 7 33 25
37 43 11 12 -18 19 -20 35 -11 28 15 42 14 42 -4 0 -8 -5 -15 -11 -15 -17 0
-6 -44 12 -48 10 -2 25 11 37 33 27 44 42 45 42 2 0 -33 30 -74 43 -60 11 11
8 48 -5 61 -9 9 -9 15 -1 23 8 8 15 4 26 -17 11 -21 17 -25 20 -14 28 84 28
82 6 128 -13 27 -36 53 -57 65 -32 19 -33 21 -16 34 10 7 31 13 46 13 24 0 32
-7 45 -37 8 -21 18 -66 22 -102 6 -63 26 -94 33 -49 l3 22 17 -26 c9 -14 19
-43 22 -64 3 -22 6 -46 7 -54 5 -34 -2 -60 -15 -60 -8 0 -15 -8 -16 -17 -3
-71 -9 -95 -39 -146 -18 -32 -44 -65 -57 -74 -15 -10 -24 -25 -24 -42 0 -34
-24 -76 -143 -251 -63 -94 -185 -202 -243 -216 -16 -3 -50 -19 -75 -35 -58
-37 -149 -40 -149 -5 0 12 -35 46 -47 46 -4 0 -31 12 -59 26 -39 20 -54 34
-64 62 -8 20 -13 45 -11 54 1 12 -3 16 -12 12 -19 -7 -34 14 -42 58 -7 36 -6
37 26 40 28 2 35 8 43 36 7 24 14 32 32 32 31 0 31 17 -1 32 -29 13 -31 21
-10 42 8 8 15 19 15 24 0 5 7 15 15 22 24 20 77 102 70 108 -7 7 -105 -96
-105 -111 0 -5 -15 -30 -33 -56 -19 -25 -51 -77 -71 -116 -51 -95 -57 -100
-86 -75 -13 11 -18 20 -12 20 7 0 12 7 12 15 0 13 -5 13 -40 -1 -23 -9 -43
-15 -45 -13 -6 7 -17 61 -18 89 -1 63 5 79 46 123 96 100 123 147 129 229 1
20 -1 40 -5 44 -4 4 -7 -2 -7 -13 0 -27 -33 -64 -59 -66 -12 -1 -24 -10 -27
-22 -14 -45 -54 -56 -54 -14 0 16 -4 17 -25 9 -25 -9 -46 3 -23 14 7 3 1 3
-14 0 -24 -5 -28 -3 -28 15 0 12 -3 20 -7 18 -5 -1 -8 0 -8 3 0 17 -48 68 -60
64 -23 -9 -38 5 -23 23 10 12 9 17 -5 24 -9 6 -17 19 -17 29 0 11 -4 20 -8 20
-5 0 -30 21 -56 47 -31 30 -50 43 -55 35 -5 -8 -14 -7 -35 3 -38 20 -46 19
-46 -5 0 -21 16 -28 22 -9 2 7 12 7 28 1 21 -8 28 -21 39 -73 8 -35 14 -67 13
-70 -1 -4 8 -15 18 -24 11 -10 20 -29 20 -42 0 -12 5 -23 10 -23 6 0 10 -14
10 -31 0 -24 4 -30 16 -25 8 3 13 2 10 -2 -2 -4 1 -35 8 -67 8 -40 10 -84 5
-130 -4 -39 -8 -126 -8 -195 0 -69 -4 -136 -9 -150 -5 -14 -13 -73 -17 -133
-4 -59 -11 -110 -16 -113 -5 -3 -7 -10 -4 -15 4 -5 1 -17 -4 -26 -8 -15 -11
-15 -12 -3 -1 8 -1 18 0 22 3 21 -20 57 -33 52 -12 -4 -17 6 -22 45 -4 28 -10
51 -15 51 -5 0 -9 10 -9 23 0 13 -4 27 -9 33 -6 5 -11 29 -13 53 -3 48 -28 71
-28 27 0 -27 -14 -33 -39 -17 -8 5 -10 14 -6 21 4 7 2 16 -5 20 -9 5 -9 9 -1
14 6 4 11 2 11 -3 0 -6 4 -11 9 -11 5 0 7 59 5 133 -2 72 -4 138 -4 146 0 35
-15 -5 -15 -42 -1 -23 -5 -77 -9 -120 -7 -59 -11 -75 -21 -67 -15 12 -25 3
-25 -25 0 -11 -4 -25 -9 -31 -5 -5 -11 -27 -14 -49 -5 -34 -2 -44 18 -64 20
-18 25 -20 25 -7 0 29 18 17 31 -21 9 -28 9 -38 0 -41 -17 -6 -13 -30 6 -41
16 -8 14 -11 -10 -22 -26 -12 -47 -53 -33 -66 3 -4 6 1 6 9 0 20 40 31 57 16
7 -6 13 -22 12 -37 0 -14 2 -36 6 -47 6 -19 3 -21 -19 -17 -22 5 -26 2 -26
-17 0 -13 8 -29 18 -36 16 -12 15 -13 -5 -14 -12 0 -25 -4 -28 -10 -3 -5 -1
-10 4 -10 6 0 20 -9 32 -21 20 -20 20 -21 2 -34 -10 -8 -21 -15 -24 -15 -11 0
-18 -40 -8 -46 5 -3 9 -14 9 -25 0 -12 5 -19 13 -16 6 2 12 14 12 26 1 20 19
40 38 41 4 0 6 -16 4 -35 -2 -19 1 -36 6 -38 13 -4 -23 -56 -40 -57 -7 0 -24
-5 -38 -12 -32 -14 -35 -55 -4 -54 12 1 26 -8 33 -19 6 -11 14 -22 17 -25 3
-3 9 -14 13 -25 8 -20 8 -20 16 1 8 21 60 40 60 23 0 -5 -4 -9 -10 -9 -5 0
-10 -5 -10 -11 0 -5 5 -7 11 -3 18 11 27 -15 22 -57 l-6 -39 124 0 c97 0 130
4 147 16 12 8 27 12 32 9 6 -3 10 -1 10 4 0 19 38 12 53 -9 13 -18 23 -21 83
-18 53 2 69 6 69 18 0 9 -11 16 -28 18 -31 4 -52 31 -60 79 -10 50 9 48 24 -2
9 -32 19 -45 31 -45 22 0 24 18 3 26 -8 4 -22 29 -30 57 -18 60 -18 57 -5 57
6 0 10 -7 10 -17 0 -9 3 -13 7 -10 4 4 -4 26 -16 48 -24 43 -39 149 -21 149 5
0 17 -11 26 -25 10 -15 26 -25 40 -25 28 0 30 -8 8 -25 -14 -10 -15 -14 -3
-33 10 -16 11 -27 3 -39 -9 -15 -5 -24 18 -48 15 -17 28 -24 28 -16 0 7 6 11
14 8 9 -4 17 2 21 14 7 21 31 26 37 7 5 -14 38 -3 38 13 0 6 -7 8 -16 5 -13
-5 -15 -2 -11 16 5 17 -2 30 -28 54 -22 20 -33 38 -29 47 7 18 -31 43 -41 27
-3 -5 -19 -10 -36 -10 -24 0 -29 4 -29 24 0 28 17 37 44 24 13 -7 22 -6 33 5
13 13 12 15 -12 21 -14 4 -30 4 -34 1 -5 -3 -18 10 -29 29 -18 30 -19 36 -6
47 11 9 14 8 14 -3 0 -27 32 -47 60 -36 19 7 21 11 11 18 -8 4 -11 15 -8 23 6
16 -10 37 -30 37 -9 0 -10 -6 -3 -26 12 -32 12 -34 0 -34 -5 0 -10 6 -10 14 0
7 -7 20 -16 27 -14 11 -19 10 -35 -10 -11 -13 -20 -20 -20 -17 -1 3 -2 12 -3
19 0 6 -8 12 -16 12 -16 0 -28 25 -29 60 0 17 3 16 25 -10 18 -21 22 -23 15
-8 -14 27 6 114 24 107 7 -3 18 2 25 11 17 21 26 19 26 -7 1 -114 11 -133 42
-77 48 89 108 156 131 147 5 -2 -2 -25 -15 -51 -12 -27 -26 -70 -30 -95 -4
-26 -11 -56 -16 -66 -9 -17 -7 -18 23 -13 19 3 45 9 59 13 20 6 16 -2 -25 -41
-27 -26 -49 -54 -47 -61 1 -7 -7 -18 -18 -24 -24 -13 -18 -30 11 -30 23 0 25
-13 4 -30 -24 -20 -18 -30 17 -30 24 0 41 10 75 46 25 25 47 44 50 41 9 -10
-17 -72 -41 -98 -25 -27 -20 -49 11 -49 7 0 13 -4 13 -10 0 -5 -6 -10 -14 -10
-8 0 -18 -10 -22 -22 -5 -16 -1 -26 15 -36 25 -17 28 -64 6 -134 l-14 -48 359
0 c313 0 360 2 360 15 0 8 5 15 10 15 6 0 10 5 10 10 0 6 -11 10 -25 10 -14 0
-25 5 -25 10 0 13 41 55 59 61 18 6 23 119 5 119 -15 0 -28 35 -18 51 4 7 8
30 10 53 l3 41 -15 -31 c-12 -24 -20 -30 -38 -27 -21 4 -23 9 -16 38 4 18 11
38 15 45 4 7 7 32 7 56 -1 24 3 45 8 45 6 1 15 2 21 3 13 1 38 45 39 69 0 9
-6 17 -14 17 -8 0 -16 10 -19 22 -6 23 4 86 17 107 4 6 2 20 -4 31 -10 18 -17
19 -67 13 -51 -6 -56 -4 -50 11 4 10 7 20 7 22 0 2 14 4 30 4 17 0 30 5 30 11
0 6 -9 9 -19 6 -10 -2 -25 -1 -32 4 -11 7 -10 9 4 9 9 0 17 4 17 10 0 5 -7 7
-15 4 -9 -4 -15 0 -15 7 0 11 -3 11 -10 -1 -9 -13 -11 -13 -20 0 -11 16 -13
50 -4 50 3 0 17 -9 31 -20 14 -11 30 -17 36 -13 6 3 7 1 3 -5 -4 -6 4 -16 16
-23 13 -7 26 -17 30 -23 5 -6 5 4 2 22 -6 28 -4 32 15 32 14 0 25 9 31 25 5
14 14 25 19 25 15 0 49 82 52 127 3 32 -2 49 -20 69 -15 17 -21 35 -18 50 l4
23 -25 -20 c-14 -10 -27 -17 -30 -15 -2 3 3 29 11 58 9 29 18 73 22 97 4 30
13 50 30 63 17 13 25 30 25 49 0 16 4 37 9 47 17 30 51 159 51 191 0 24 -14
48 -53 94 -29 34 -70 89 -91 120 -35 52 -40 68 -47 144 -9 104 -42 195 -85
238 -55 56 -64 53 -141 -44 -38 -47 -81 -105 -96 -128 -14 -23 -46 -63 -69
-90 -24 -27 -64 -81 -88 -121 -47 -76 -66 -92 -49 -42 6 17 14 30 18 30 4 0
22 37 41 83 36 87 110 234 141 279 19 27 37 88 25 88 -3 0 -6 -7 -6 -15z
m-238 -527 c-7 -7 -12 -8 -12 -2 0 14 12 26 19 19 2 -3 -1 -11 -7 -17z m-22
-25 c0 -5 -5 -15 -10 -23 -8 -12 -10 -11 -10 8 0 12 5 22 10 22 6 0 10 -3 10
-7z m-573 -575 c-3 -8 -6 -5 -6 6 -1 11 2 17 5 13 3 -3 4 -12 1 -19z m-87
-100 c0 -9 -4 -20 -10 -23 -6 -4 -10 9 -10 32 0 28 3 34 10 23 5 -8 10 -23 10
-32z m80 17 c0 -26 -14 -33 -25 -15 -9 14 1 40 15 40 5 0 10 -11 10 -25z m42
-117 c-6 -6 -15 -7 -21 -4 -17 11 -13 34 7 45 13 8 18 6 20 -11 2 -11 -1 -25
-6 -30z m62 -65 l-27 -36 -14 44 c-18 61 -17 62 22 55 25 -5 35 -3 36 6 1 7 4
3 6 -10 3 -15 -5 -36 -23 -59z m129 17 c-6 -6 -43 38 -43 52 0 5 11 -4 24 -19
13 -15 22 -30 19 -33z m-318 -22 c5 -18 3 -28 -4 -28 -14 0 -33 48 -25 62 9
13 21 -1 29 -34z m1093 -43 c11 -23 10 -25 -13 -25 -29 0 -41 16 -25 35 17 21
25 19 38 -10z m-1013 -34 c13 -22 16 -61 4 -61 -6 0 -8 -4 -5 -8 3 -5 6 -42 7
-83 2 -83 6 -94 22 -81 7 5 28 13 47 16 24 5 30 4 21 -2 -10 -7 -12 -21 -8
-46 5 -29 2 -39 -16 -51 -11 -8 -23 -12 -26 -9 -3 3 2 10 12 15 9 6 17 15 17
21 0 7 -5 6 -15 -2 -12 -10 -15 -10 -15 3 0 8 -7 20 -16 28 -14 11 -15 5 -12
-60 4 -62 2 -70 -9 -55 -7 10 -13 27 -13 38 0 12 -7 30 -15 40 -10 13 -15 15
-15 6 0 -7 -3 -10 -7 -7 -3 4 0 19 7 33 11 19 11 29 3 44 -7 10 -15 60 -18
112 -4 52 -13 103 -21 115 -13 21 -13 22 24 16 20 -3 41 -13 47 -22z m-117
-105 c-3 -34 -2 -72 1 -86 4 -14 5 -34 2 -44 -4 -20 -4 -20 -12 0 -6 16 -8 15
-8 -8 -1 -16 -5 -28 -10 -28 -10 0 -8 109 4 204 11 79 30 47 23 -38z m245 -46
c4 -17 2 -18 -13 -10 -28 15 -34 30 -12 30 11 0 22 -9 25 -20z m-237 -187 c-3
-3 -13 -3 -22 1 -13 5 -14 9 -3 22 11 14 13 14 22 -1 5 -9 6 -19 3 -22z m72
-40 c0 -14 7 -32 17 -39 10 -7 15 -20 12 -28 -4 -9 3 -36 14 -60 15 -36 18
-57 13 -96 -11 -82 -29 -61 -43 50 -6 55 -18 112 -26 127 -16 30 -19 56 -8 66
13 14 21 6 21 -20z m164 -122 c3 -29 5 -72 3 -95 -1 -22 -3 -58 -4 -78 -1 -26
-6 -38 -15 -38 -22 0 -29 36 -28 129 0 61 -3 88 -14 98 -19 20 0 45 30 41 17
-2 22 -12 28 -57z m-274 -76 c4 -48 2 -55 -12 -49 -12 5 -16 20 -16 67 0 78
21 64 28 -18z m-131 -101 c-3 -3 -12 -4 -19 -1 -8 3 -5 6 6 6 11 1 17 -2 13
-5z m130 -86 c-2 -13 -4 -3 -4 22 0 25 2 35 4 23 2 -13 2 -33 0 -45z m313 -31
c0 -24 -3 -28 -10 -17 -13 20 -13 63 0 55 6 -3 10 -21 10 -38z"/>
<path d="M5379 2267 c-20 -17 -51 -45 -69 -61 -40 -35 -24 -48 19 -17 16 12
32 21 37 21 18 0 74 53 74 71 0 28 -20 23 -61 -14z"/>
<path d="M6713 2225 c-72 -41 -136 -75 -142 -75 -6 0 -11 -4 -11 -8 0 -4 -17
-14 -37 -21 -53 -18 -83 -39 -83 -56 0 -8 7 -15 16 -15 8 0 12 -4 9 -10 -11
-18 39 -11 74 11 18 11 77 56 130 99 53 43 110 85 128 94 18 9 37 25 43 36 6
11 9 20 8 20 -2 0 -62 -34 -135 -75z"/>
<path d="M5987 2265 c-3 -11 -7 -49 -9 -85 -3 -60 -1 -65 19 -68 26 -4 53 32
53 71 0 15 4 26 9 22 15 -9 25 15 11 28 -9 9 -15 7 -26 -7 -16 -23 -18 -22
-36 24 -13 30 -16 32 -21 15z"/>
<path d="M5880 2181 c0 -5 5 -13 10 -16 6 -3 10 -2 10 4 0 5 -4 13 -10 16 -5
3 -10 2 -10 -4z"/>
<path d="M2623 2136 c-28 -13 -30 -26 -3 -26 11 0 20 5 20 10 0 6 7 10 15 10
8 0 15 5 15 10 0 12 -18 11 -47 -4z"/>
<path d="M5940 2141 c0 -6 4 -13 10 -16 6 -3 7 1 4 9 -7 18 -14 21 -14 7z"/>
<path d="M6654 2051 c-38 -32 -89 -83 -112 -114 -47 -63 -77 -76 -127 -58 -17
6 -38 11 -47 11 -8 0 -23 18 -34 39 -20 42 -34 37 -34 -11 0 -33 69 -108 99
-108 47 0 179 106 275 220 16 19 36 43 44 53 34 39 1 23 -64 -32z"/>
<path d="M50 2075 c0 -14 5 -25 10 -25 6 0 10 11 10 25 0 14 -4 25 -10 25 -5
0 -10 -11 -10 -25z"/>
<path d="M2628 2077 c-17 -14 -24 -27 -19 -35 5 -9 12 -6 27 11 44 50 40 63
-8 24z"/>
<path d="M6196 2034 c-13 -12 -15 -32 -12 -92 4 -88 26 -137 72 -162 16 -9 37
-33 47 -53 20 -40 31 -46 41 -22 3 9 0 15 -9 15 -9 0 -15 10 -15 23 0 13 -20
62 -44 110 -34 65 -47 82 -56 74 -10 -9 -11 3 -5 56 3 37 4 67 2 67 -3 0 -13
-7 -21 -16z"/>
<path d="M205 1990 c-3 -5 -2 -10 4 -10 5 0 13 5 16 10 3 6 2 10 -4 10 -5 0
-13 -4 -16 -10z"/>
<path d="M2862 1945 c-29 -36 -108 -222 -98 -232 3 -3 10 6 15 20 6 14 26 40
45 57 35 33 59 80 75 150 11 49 1 51 -37 5z"/>
<path d="M305 1960 c-3 -5 -1 -10 4 -10 6 0 11 5 11 10 0 6 -2 10 -4 10 -3 0
-8 -4 -11 -10z"/>
<path d="M4551 1924 c0 -11 3 -14 6 -6 3 7 2 16 -1 19 -3 4 -6 -2 -5 -13z"/>
<path d="M505 1920 c3 -5 8 -10 11 -10 2 0 4 5 4 10 0 6 -5 10 -11 10 -5 0 -7
-4 -4 -10z"/>
<path d="M2715 1875 c-3 -26 -4 -49 -2 -51 3 -3 8 16 12 41 3 26 4 49 2 51 -3
3 -8 -16 -12 -41z"/>
<path d="M378 1894 c-24 -24 -98 -30 -136 -10 -39 20 -48 20 -31 0 10 -12 10
-17 0 -23 -8 -5 -10 -18 -5 -36 6 -25 5 -27 -16 -20 -19 6 -21 4 -15 -16 6
-18 4 -21 -9 -16 -13 5 -15 1 -11 -21 5 -25 5 -25 -7 -8 -14 20 -77 86 -82 86
-2 0 -6 -18 -10 -40 -5 -34 -10 -40 -31 -40 l-25 0 0 -105 c0 -90 2 -105 16
-105 10 0 14 5 10 15 -3 9 3 23 14 32 11 10 20 23 20 30 0 19 9 16 30 -9 10
-13 22 -20 26 -15 4 4 0 13 -9 20 -12 9 -14 16 -6 27 8 11 12 12 16 3 8 -21
28 -15 51 17 22 29 24 30 51 16 29 -16 51 -7 51 21 0 18 19 16 26 -2 4 -8 15
-15 25 -15 10 0 28 -9 39 -20 11 -11 25 -20 31 -20 6 0 8 -7 5 -15 -7 -18 14
-105 25 -105 4 0 14 7 23 15 8 8 19 15 24 15 11 0 25 -47 17 -59 -2 -5 2 -14
10 -21 12 -10 15 -9 15 9 0 31 23 111 32 111 4 0 8 -4 8 -10 0 -5 5 -10 10
-10 18 0 11 29 -12 50 -20 19 -23 31 -24 103 0 56 4 87 14 99 8 9 9 18 4 22
-6 3 -20 -7 -33 -23 -25 -31 -36 -31 -81 3 -18 12 -24 23 -19 30 6 7 5 20 -3
34 -11 20 -13 21 -28 6z"/>
<path d="M30 1875 c0 -8 5 -15 10 -15 6 0 10 7 10 15 0 8 -4 15 -10 15 -5 0
-10 -7 -10 -15z"/>
<path d="M4514 1874 c3 -9 6 -18 6 -20 0 -2 7 -4 15 -4 13 0 14 4 5 20 -13 24
-35 27 -26 4z"/>
<path d="M570 1800 c0 -5 5 -10 10 -10 6 0 10 5 10 10 0 6 -4 10 -10 10 -5 0
-10 -4 -10 -10z"/>
<path d="M2706 1794 c-4 -9 -4 -19 -1 -22 2 -3 7 3 11 12 4 9 4 19 1 22 -2 3
-7 -3 -11 -12z"/>
<path d="M2632 1760 c0 -19 2 -27 5 -17 2 9 2 25 0 35 -3 9 -5 1 -5 -18z"/>
<path d="M2691 1744 c0 -11 3 -14 6 -6 3 7 2 16 -1 19 -3 4 -6 -2 -5 -13z"/>
<path d="M655 1710 c3 -5 8 -10 11 -10 2 0 4 5 4 10 0 6 -5 10 -11 10 -5 0 -7
-4 -4 -10z"/>
<path d="M2640 1712 c0 -18 23 -62 32 -62 14 0 9 21 -12 47 -11 14 -20 21 -20
15z"/>
<path d="M6364 1686 c-21 -11 -22 -36 -2 -36 11 0 37 29 38 43 0 9 -10 8 -36
-7z"/>
<path d="M6950 1690 c0 -5 8 -14 18 -20 12 -8 13 -13 5 -16 -18 -8 -16 -24 2
-24 12 0 42 39 33 43 -2 1 -13 8 -25 15 -27 14 -33 15 -33 2z"/>
<path d="M4975 1650 c-3 -5 -1 -10 4 -10 6 0 11 5 11 10 0 6 -2 10 -4 10 -3 0
-8 -4 -11 -10z"/>
<path d="M4710 1630 c0 -5 5 -10 10 -10 6 0 10 5 10 10 0 6 -4 10 -10 10 -5 0
-10 -4 -10 -10z"/>
<path d="M580 1596 c0 -8 5 -18 10 -21 6 -3 10 1 10 9 0 8 -4 18 -10 21 -5 3
-10 -1 -10 -9z"/>
<path d="M4530 1580 c0 -5 4 -10 9 -10 6 0 13 5 16 10 3 6 -1 10 -9 10 -9 0
-16 -4 -16 -10z"/>
<path d="M4725 1580 c3 -5 1 -10 -5 -10 -6 0 -9 -4 -5 -10 8 -13 35 -1 35 16
0 8 -7 14 -16 14 -8 0 -12 -4 -9 -10z"/>
<path d="M7063 1568 c-18 -18 -32 -21 -75 -20 -39 2 -49 0 -38 -7 8 -6 25 -11
37 -11 12 0 25 -4 28 -10 11 -18 46 -4 66 26 31 48 21 61 -18 22z"/>
<path d="M4071 1564 c0 -11 3 -14 6 -6 3 7 2 16 -1 19 -3 4 -6 -2 -5 -13z"/>
<path d="M4495 1570 c3 -5 8 -10 11 -10 2 0 4 5 4 10 0 6 -5 10 -11 10 -5 0
-7 -4 -4 -10z"/>
<path d="M4406 1554 c-5 -12 -2 -15 10 -10 8 3 22 6 30 6 8 0 14 5 14 10 0 17
-47 11 -54 -6z"/>
<path d="M4653 1553 c-15 -3 -23 -12 -23 -24 0 -10 -4 -19 -9 -19 -5 0 -14
-14 -20 -31 -9 -28 -12 -29 -33 -18 -29 16 -47 21 -78 21 -14 0 -31 5 -38 10
-7 6 -16 7 -20 3 -4 -4 -1 -10 6 -12 6 -3 12 -9 12 -15 0 -6 -6 -8 -12 -5 -46
19 -48 19 -48 3 0 -10 9 -16 25 -16 16 0 25 -6 25 -16 0 -10 -6 -14 -15 -10
-9 3 -25 -5 -39 -20 -19 -22 -23 -34 -19 -72 3 -42 13 -103 18 -124 2 -5 3
-14 4 -21 0 -7 21 -27 45 -44 52 -37 65 -85 41 -153 -19 -53 -19 -60 0 -60 8
0 21 -15 30 -34 18 -37 14 -68 -12 -98 -10 -11 -11 -18 -4 -23 16 -9 31 3 31
26 0 13 7 19 21 19 18 0 20 -4 15 -27 -3 -16 -3 -22 0 -15 3 6 12 12 20 12 10
0 13 -7 8 -24 -4 -16 -1 -25 12 -30 9 -4 18 -5 18 -4 1 2 6 17 12 33 6 20 17
31 32 33 16 3 22 10 22 28 0 18 -4 23 -12 17 -34 -21 -67 -9 -68 23 0 12 32
11 62 -1 13 -5 18 1 23 27 4 19 5 50 3 69 -3 29 -7 34 -32 37 -16 2 -33 -1
-39 -7 -18 -18 -27 -13 -27 17 0 23 4 27 31 29 17 1 37 8 45 14 8 6 14 8 14 3
0 -5 5 -2 10 6 5 8 10 54 10 102 0 86 -1 88 -25 94 -14 4 -29 4 -32 0 -4 -3 1
-6 10 -6 10 0 17 -8 17 -18 0 -26 -29 -82 -46 -89 -8 -3 -14 -18 -14 -33 0
-39 -10 -43 -64 -23 -49 19 -66 53 -25 53 16 0 20 5 16 20 -5 21 1 24 41 20
33 -2 27 9 -13 26 -39 16 -45 36 -15 57 18 12 18 16 6 26 -8 7 -12 19 -9 27 7
18 48 11 74 -12 19 -17 49 -18 49 -1 -1 28 -55 67 -113 81 -23 6 -26 9 -17 26
10 19 12 19 58 -6 43 -23 48 -24 57 -8 6 9 20 29 32 44 24 30 24 68 -1 82 -9
5 -13 15 -10 23 4 8 5 14 3 14 -2 -1 -14 -4 -26 -6z m-42 -616 c-1 -12 -15 -9
-19 4 -3 6 1 10 8 8 6 -3 11 -8 11 -12z m-38 -53 c8 -8 -3 -34 -14 -34 -5 0
-9 9 -9 20 0 19 11 26 23 14z"/>
<path d="M4903 1545 c-21 -9 -33 -21 -32 -32 0 -17 1 -17 8 1 6 17 9 16 25 -9
20 -31 31 -25 39 23 7 36 5 37 -40 17z"/>
<path d="M4534 1540 c-32 -12 -36 -25 -9 -26 13 -1 26 5 30 14 7 20 4 21 -21
12z"/>
<path d="M4031 1513 c-13 -28 -13 -28 8 -9 22 20 27 36 13 36 -5 0 -14 -12
-21 -27z"/>
<path d="M4290 1519 c0 -5 5 -7 10 -4 6 3 10 8 10 11 0 2 -4 4 -10 4 -5 0 -10
-5 -10 -11z"/>
<path d="M230 1509 c-10 -6 -11 -9 -2 -9 6 0 11 -5 10 -11 -2 -6 3 -14 10 -16
7 -3 12 4 12 16 0 25 -11 33 -30 20z"/>
<path d="M4173 1488 c-23 -51 -56 -155 -61 -191 -5 -41 10 -67 39 -67 21 0 34
36 27 75 -4 21 -1 25 18 25 26 0 28 4 24 69 -2 37 -24 111 -33 111 -2 0 -8
-10 -14 -22z"/>
<path d="M7040 1502 c0 -4 -28 -6 -61 -4 -68 5 -74 -8 -15 -34 l31 -13 -32 -1
c-40 0 -42 -11 -6 -27 34 -16 43 -16 43 -1 0 7 14 26 31 44 19 20 27 34 20 38
-6 4 -11 3 -11 -2z"/>
<path d="M4740 1473 c0 -26 22 -236 26 -251 6 -20 39 16 53 57 6 19 11 35 11
36 0 1 -10 1 -22 1 -20 -1 -23 4 -26 48 -3 43 -1 48 15 42 17 -6 17 -5 1 8
-10 7 -18 22 -18 32 0 11 -9 25 -20 32 -17 10 -20 10 -20 -5z"/>
<path d="M4276 1452 c-2 -4 -1 -14 5 -22 7 -12 9 -10 9 8 0 23 -5 28 -14 14z"/>
<path d="M3580 1403 c-31 -22 -62 -53 -52 -53 8 0 90 70 82 70 -3 0 -16 -8
-30 -17z"/>
<path d="M7048 1413 c7 -3 16 -2 19 1 4 3 -2 6 -13 5 -11 0 -14 -3 -6 -6z"/>
<path d="M4850 1380 c0 -5 5 -10 10 -10 6 0 10 5 10 10 0 6 -4 10 -10 10 -5 0
-10 -4 -10 -10z"/>
<path d="M6440 1335 c-7 -9 -18 -14 -24 -12 -9 3 -46 -43 -46 -58 0 -7 75 27
93 43 9 8 17 21 17 29 0 18 -25 17 -40 -2z"/>
<path d="M181 1294 c0 -11 3 -14 6 -6 3 7 2 16 -1 19 -3 4 -6 -2 -5 -13z"/>
<path d="M6695 1290 c3 -5 8 -10 11 -10 2 0 4 5 4 10 0 6 -5 10 -11 10 -5 0
-7 -4 -4 -10z"/>
<path d="M6666 1095 c-3 -9 0 -15 9 -15 9 0 12 6 9 15 -4 8 -7 15 -9 15 -2 0
-5 -7 -9 -15z"/>
<path d="M6626 1034 c-11 -27 -7 -35 16 -32 28 4 33 20 9 35 -16 10 -20 9 -25
-3z"/>
<path d="M7 1013 c-4 -3 -7 -34 -7 -69 l0 -62 51 0 c42 0 52 4 58 22 9 23 4
46 -10 46 -5 0 -9 -8 -9 -17 0 -14 -2 -15 -9 -4 -5 7 -14 10 -20 6 -7 -4 -21
3 -32 16 -21 25 -11 49 22 49 11 0 19 5 19 10 0 11 -53 14 -63 3z"/>
<path d="M6620 955 c0 -8 9 -15 20 -15 24 0 27 15 4 24 -22 9 -24 8 -24 -9z"/>
<path d="M2913 885 c-18 -8 -33 -21 -33 -29 0 -20 24 -11 56 20 26 27 22 29
-23 9z"/>
<path d="M5920 819 c0 -5 5 -7 10 -4 6 3 10 8 10 11 0 2 -4 4 -10 4 -5 0 -10
-5 -10 -11z"/>
<path d="M4555 640 c-3 -5 -1 -10 4 -10 6 0 11 5 11 10 0 6 -2 10 -4 10 -3 0
-8 -4 -11 -10z"/>
<path d="M4426 622 c-8 -14 12 -38 23 -27 6 6 4 14 -4 22 -8 7 -16 9 -19 5z"/>
<path d="M5730 601 c0 -6 -7 -11 -15 -11 -8 0 -15 -4 -15 -10 0 -14 11 -12 33
4 12 9 14 16 8 21 -6 3 -11 1 -11 -4z"/>
<path d="M4334 507 c-9 -24 6 -44 18 -22 7 11 6 21 -1 28 -7 7 -12 6 -17 -6z"/>
<path d="M9353 463 c-13 -47 -10 -176 5 -180 7 -3 12 4 12 19 0 13 5 30 10 38
8 12 10 10 11 -10 l1 -25 8 25 c11 35 12 100 1 100 -5 0 -14 14 -20 30 -12 37
-19 38 -28 3z"/>
<path d="M4382 457 c-9 -10 -8 -18 2 -32 18 -25 48 -13 44 17 -4 27 -30 35
-46 15z"/>
<path d="M4456 391 c-4 -7 -5 -15 -2 -18 9 -9 19 4 14 18 -4 11 -6 11 -12 0z"/>
<path d="M4566 374 c-5 -14 -4 -15 8 -5 8 7 20 10 26 6 5 -3 10 -1 10 4 0 17
-37 13 -44 -5z"/>
<path d="M4518 283 c7 -3 16 -2 19 1 4 3 -2 6 -13 5 -11 0 -14 -3 -6 -6z"/>
<path d="M4471 257 c0 -7 8 -32 18 -57 17 -42 19 -43 26 -20 l8 25 8 -23 c7
-18 14 -22 29 -17 16 5 20 2 20 -14 0 -23 12 -26 41 -11 12 7 19 21 19 40 0
26 -9 36 -24 28 -3 -2 -15 7 -29 20 -15 14 -30 20 -41 16 -9 -3 -22 -2 -29 3
-22 18 -47 23 -46 10z"/>
<path d="M5130 220 c-12 -8 -9 -10 13 -10 15 0 27 5 27 10 0 13 -20 13 -40 0z"/>
<path d="M6400 151 c0 -12 5 -21 10 -21 6 0 10 6 10 14 0 8 -4 18 -10 21 -5 3
-10 -3 -10 -14z"/>
<path d="M4502 110 c-1 -19 1 -52 4 -73 6 -33 10 -37 35 -37 28 0 29 2 28 43
-1 39 -2 40 -9 12 l-7 -30 -11 35 c-10 35 -11 35 -19 10 -7 -22 -9 -18 -14 25
-5 40 -6 43 -7 15z"/>
<path d="M5820 80 c0 -5 5 -10 10 -10 6 0 10 5 10 10 0 6 -4 10 -10 10 -5 0
-10 -4 -10 -10z"/>
<path d="M5746 41 c-23 -25 -2 -41 56 -41 35 0 48 4 48 14 0 8 2 20 5 28 8 21
-90 21 -109 -1z"/>
</g>
</svg>
